<svg width="44" height="44" viewBox="0 0 44 44" fill="none" xmlns="http://www.w3.org/2000/svg">
<path d="M7.87239 17.1494C7.86758 17.1474 3.45202 15.468 3.45202 15.468C3.11927 15.3415 2.74699 15.5086 2.62041 15.8413C2.49391 16.1742 2.66105 16.5463 2.99372 16.6729L3.67563 16.9323V18.7344L2.99552 18.9906C2.73728 19.0879 2.57812 19.3333 2.57812 19.5938C2.57812 19.6694 2.59153 19.7462 2.61972 19.8211C2.74519 20.1541 3.11704 20.3224 3.45013 20.1969C3.45013 20.1969 7.86792 18.5318 7.87377 18.5294C8.1547 18.414 8.33611 18.1433 8.33611 17.8397C8.33594 17.535 8.15383 17.2643 7.87239 17.1494ZM4.96478 18.2486V17.4224L6.05576 17.8374L4.96478 18.2486Z" fill="url(#paint0_linear_2591_816)"/>
<path d="M42.7087 22.6016C43.4922 22.0131 44 21.0765 44 20.0234C44 18.2464 42.5544 16.8008 40.7773 16.8008H33.4883C34.534 15.7749 35.4163 14.5815 36.0803 13.2817C37.0587 11.3666 37.5547 9.29775 37.5547 7.13281C37.5547 5.3558 36.109 3.91016 34.332 3.91016C32.555 3.91016 31.1094 5.3558 31.1094 7.13281C31.1094 9.62062 29.0854 11.6445 26.5977 11.6445C22.453 11.6445 18.6221 13.4882 16.0365 16.7148H10.9141V13.4922C10.9141 13.1362 10.6256 12.8477 10.2695 12.8477H0.644531C0.288492 12.8477 0 13.1362 0 13.4922V39.4453C0 39.8013 0.288492 40.0898 0.644531 40.0898H10.2695C10.6256 40.0898 10.9141 39.8013 10.9141 39.4453V18.0039H16.3505C16.5513 18.0039 16.7406 17.9103 16.8626 17.7508C19.2024 14.6894 22.7507 12.9336 26.5977 12.9336C29.7962 12.9336 32.3984 10.3314 32.3984 7.13281C32.3984 6.06659 33.2659 5.19922 34.332 5.19922C35.3982 5.19922 36.2656 6.06659 36.2656 7.13281C36.2656 10.95 34.5435 14.461 31.5345 16.8008H24.0195C23.6635 16.8008 23.375 17.0894 23.375 17.4453C23.375 17.8013 23.6635 18.0898 24.0195 18.0898H40.7773C41.8435 18.0898 42.7109 18.9572 42.7109 20.0234C42.7109 21.0897 41.8435 21.957 40.7773 21.957H36.2656V20.0234C36.2656 19.6675 35.9771 19.3789 35.6211 19.3789C35.2651 19.3789 34.9766 19.6675 34.9766 20.0234V35.4922C34.9766 35.8481 35.2651 36.1367 35.6211 36.1367C35.9771 36.1367 36.2656 35.8481 36.2656 35.4922V33.5586H38.1992C39.2654 33.5586 40.1328 34.426 40.1328 35.4922C40.1328 36.5584 39.2654 37.4258 38.1992 37.4258H26.5977C23.9733 37.4258 21.4708 36.6072 19.3606 35.0585C19.25 34.9774 19.1165 34.9336 18.9792 34.9336H12.8477C12.4916 34.9336 12.2031 35.2222 12.2031 35.5781C12.2031 35.9341 12.4916 36.2227 12.8477 36.2227H18.7709C21.067 37.8538 23.7683 38.7148 26.5977 38.7148H38.1992C39.9762 38.7148 41.4219 37.2692 41.4219 35.4922C41.4219 34.6736 41.1147 33.9259 40.61 33.3569C41.8356 32.9003 42.7109 31.7186 42.7109 30.3359C42.7109 29.5174 42.4037 28.7696 41.8991 28.2006C43.1246 27.7441 44 26.5623 44 25.1797C44 24.1266 43.4922 23.19 42.7087 22.6016ZM9.625 38.8008H1.28906V14.1367H9.625V38.8008ZM39.4883 32.2695H36.2656V28.4023H39.4883C40.5544 28.4023 41.4219 29.2697 41.4219 30.3359C41.4219 31.4022 40.5544 32.2695 39.4883 32.2695ZM40.7773 27.1133H36.2656V23.2461H40.7773C41.8435 23.2461 42.7109 24.1135 42.7109 25.1797C42.7109 26.2459 41.8435 27.1133 40.7773 27.1133Z" fill="url(#paint1_linear_2591_816)"/>
<path d="M3.2227 34.4257H5.62388L2.85643 36.3369C2.62432 36.4972 2.52343 36.7898 2.60739 37.059C2.69135 37.3283 2.94065 37.5117 3.2227 37.5117H7.69145C8.04749 37.5117 8.33598 37.2232 8.33598 36.8672C8.33598 36.5113 8.04749 36.2227 7.69145 36.2227H5.29027L8.05771 34.3115C8.28983 34.1512 8.39072 33.8586 8.30676 33.5894C8.2228 33.32 7.9735 33.1367 7.69145 33.1367H3.2227C2.86666 33.1367 2.57817 33.4252 2.57817 33.7812C2.57817 34.1371 2.86666 34.4257 3.2227 34.4257Z" fill="url(#paint2_linear_2591_816)"/>
<path d="M3.22266 31.8476H7.69141C8.04745 31.8476 8.33594 31.559 8.33594 31.2031C8.33594 30.8471 8.04745 30.5585 7.69141 30.5585H3.22266C2.86662 30.5585 2.57812 30.8471 2.57812 31.2031C2.57812 31.559 2.86662 31.8476 3.22266 31.8476Z" fill="url(#paint3_linear_2591_816)"/>
<path d="M3.22266 23.9336C3.5787 23.9336 3.86719 23.645 3.86719 23.2891V22.3867H7.69141C8.04745 22.3867 8.33594 22.0981 8.33594 21.7422C8.33594 21.3862 8.04745 21.0977 7.69141 21.0977H3.22266C2.86662 21.0977 2.57812 21.3862 2.57812 21.7422V23.2891C2.57812 23.645 2.86662 23.9336 3.22266 23.9336Z" fill="url(#paint4_linear_2591_816)"/>
<path d="M3.22266 27.457C3.5787 27.457 3.86719 27.1685 3.86719 26.8125V25.9102H7.69141C8.04745 25.9102 8.33594 25.6216 8.33594 25.2656C8.33594 24.9097 8.04745 24.6211 7.69141 24.6211H3.22266C2.86662 24.6211 2.57812 24.9097 2.57812 25.2656V26.8125C2.57812 27.1685 2.86662 27.457 3.22266 27.457Z" fill="url(#paint5_linear_2591_816)"/>
<defs>
<linearGradient id="paint0_linear_2591_816" x1="2.57812" y1="15.4257" x2="8.60748" y2="15.7938" gradientUnits="userSpaceOnUse">
<stop stop-color="#7AEB8C"/>
<stop offset="0.0001" stop-color="#21A636"/>
<stop offset="1" stop-color="#066716"/>
</linearGradient>
<linearGradient id="paint1_linear_2591_816" x1="0" y1="3.91016" x2="46.068" y2="6.76928" gradientUnits="userSpaceOnUse">
<stop stop-color="#7AEB8C"/>
<stop offset="0.0001" stop-color="#21A636"/>
<stop offset="1" stop-color="#066716"/>
</linearGradient>
<linearGradient id="paint2_linear_2591_816" x1="2.57812" y1="33.1367" x2="8.60269" y2="33.5413" gradientUnits="userSpaceOnUse">
<stop stop-color="#7AEB8C"/>
<stop offset="0.0001" stop-color="#21A636"/>
<stop offset="1" stop-color="#066716"/>
</linearGradient>
<linearGradient id="paint3_linear_2591_816" x1="2.57812" y1="30.5585" x2="8.33087" y2="31.8698" gradientUnits="userSpaceOnUse">
<stop stop-color="#7AEB8C"/>
<stop offset="0.0001" stop-color="#21A636"/>
<stop offset="1" stop-color="#066716"/>
</linearGradient>
<linearGradient id="paint4_linear_2591_816" x1="2.57812" y1="21.0977" x2="8.5655" y2="21.718" gradientUnits="userSpaceOnUse">
<stop stop-color="#7AEB8C"/>
<stop offset="0.0001" stop-color="#21A636"/>
<stop offset="1" stop-color="#066716"/>
</linearGradient>
<linearGradient id="paint5_linear_2591_816" x1="2.57812" y1="24.6211" x2="8.5655" y2="25.2415" gradientUnits="userSpaceOnUse">
<stop stop-color="#7AEB8C"/>
<stop offset="0.0001" stop-color="#21A636"/>
<stop offset="1" stop-color="#066716"/>
</linearGradient>
</defs>
</svg>
