<svg width="12" height="16" viewBox="0 0 12 16" fill="none" xmlns="http://www.w3.org/2000/svg">
<path d="M6.00028 1C6.01092 1 6.01801 1.00373 6.0251 1.01118L10.9871 5.6492C10.9977 5.66039 11.0012 5.67903 10.9977 5.69394C10.9906 5.70886 10.9764 5.72004 10.9622 5.72004H1.03832C1.02414 5.72004 1.00995 5.70886 1.00286 5.69394C0.995762 5.67903 1.00286 5.66039 1.0135 5.6492L5.97545 1.01118C5.98254 1.00373 5.98964 1 6.00028 1ZM10.8629 5.63802L6.00028 1.09321L1.13763 5.63802H10.8629Z" stroke="#535353" stroke-width="0.3" stroke-miterlimit="10"/>
<path d="M10.9619 5.6377C10.9655 5.6377 10.9725 5.6377 10.9761 5.64142C10.9903 5.64888 10.9974 5.66379 10.9974 5.67871V14.9585C10.9974 14.9734 10.9903 14.9883 10.9761 14.9958C10.9619 15.0032 10.9477 14.9995 10.9335 14.9883L5.97512 10.3466C5.96803 10.3391 5.96094 10.3279 5.96094 10.3167C5.96094 10.3055 5.96448 10.2944 5.97512 10.2869L10.9371 5.64888C10.9442 5.64142 10.9513 5.6377 10.9619 5.6377ZM10.9229 14.869V5.76819L6.0567 10.3167L10.9229 14.869Z" stroke="#535353" stroke-width="0.3" stroke-miterlimit="10"/>
<path d="M1.03901 5.63818C1.04966 5.63818 1.05675 5.64191 1.06384 5.64937L6.0258 10.2874C6.03289 10.2948 6.03998 10.306 6.03998 10.3172C6.03998 10.3284 6.03644 10.3396 6.0258 10.347L1.06384 14.9888C1.0532 15 1.03547 15.0037 1.02128 14.9962C1.00709 14.9888 1 14.9739 1 14.959V5.67919C1 5.66428 1.00709 5.64937 1.02128 5.64191C1.02837 5.64191 1.03192 5.63818 1.03901 5.63818ZM5.94422 10.3172L1.07448 5.76867V14.8695L5.94422 10.3172Z" stroke="#535353" stroke-width="0.3" stroke-miterlimit="10"/>
<path d="M7.63994 2.51367C7.65413 2.51367 7.66477 2.52113 7.67186 2.53231C7.67896 2.5435 7.67896 2.55841 7.67186 2.57332L6.0368 5.64918L10.9987 14.9401L10.9314 14.9811L5.99423 5.73493L1.0713 14.9774L1.00391 14.9364L5.94813 5.64545L4.3166 2.58824C4.30951 2.57705 4.30951 2.56214 4.3166 2.54723C4.3237 2.53604 4.33434 2.52859 4.34853 2.52859L7.63994 2.51367ZM5.99069 5.56716L7.57255 2.59569L4.41237 2.61061L5.99069 5.56716Z" stroke="#535353" stroke-width="0.3" stroke-miterlimit="10"/>
</svg>
