<svg width="35" height="35" viewBox="0 0 35 35" fill="none" xmlns="http://www.w3.org/2000/svg">
<path d="M17.4988 0C10.6005 0 4.98828 5.61218 4.98828 12.5105C4.98828 15.3428 6.97611 19.8367 10.8967 25.8674C13.7611 30.2735 16.6663 33.9494 16.6953 33.986L17.4988 35L18.3023 33.986C18.3314 33.9493 21.2366 30.2735 24.101 25.8674C28.0215 19.8368 30.0094 15.3428 30.0094 12.5105C30.0093 5.61218 24.3971 0 17.4988 0ZM17.4987 31.6783C13.9694 27.0567 7.03852 17.0446 7.03852 12.5105C7.03852 6.74271 11.731 2.05024 17.4988 2.05024C23.2665 2.05024 27.9591 6.74271 27.9591 12.5105C27.9591 17.0422 21.028 27.0558 17.4987 31.6783Z" fill="#21A636"/>
<path d="M17.5 4.9209C13.4679 4.9209 10.1875 8.20126 10.1875 12.2334C10.1875 16.2655 13.4679 19.5459 17.5 19.5459C21.5321 19.5459 24.8125 16.2655 24.8125 12.2334C24.8125 8.20126 21.5322 4.9209 17.5 4.9209ZM17.5 17.4957C14.5983 17.4957 12.2377 15.135 12.2377 12.2334C12.2377 9.33186 14.5984 6.9712 17.5 6.9712C20.4016 6.9712 22.7622 9.33186 22.7622 12.2334C22.7622 15.135 20.4016 17.4957 17.5 17.4957Z" fill="#21A636"/>
</svg>
