<svg width="46" height="46" viewBox="0 0 46 46" fill="none" xmlns="http://www.w3.org/2000/svg">
<path d="M11.8084 16.0751C11.7267 16.0765 11.6456 16.0619 11.5697 16.0319C11.4937 16.002 11.4244 15.9574 11.3656 15.9007C11.247 15.7862 11.1788 15.6292 11.1759 15.4644C11.173 15.2995 11.2357 15.1402 11.3503 15.0216C11.4648 14.903 11.6218 14.8347 11.7866 14.8319C14.8367 14.7978 17.8803 14.5402 20.8927 14.0611C20.9462 14.0499 21.0011 14.0461 21.0556 14.0499C21.8107 14.0898 22.5432 14.3208 23.1846 14.7212C23.2906 14.7982 23.3695 14.9066 23.4101 15.031C23.4508 15.1555 23.4511 15.2896 23.4111 15.4142C23.3711 15.5388 23.2927 15.6477 23.1872 15.7252C23.0817 15.8026 22.9544 15.8448 22.8235 15.8457C22.6771 15.8457 22.5351 15.7955 22.4213 15.7034C22.0022 15.4632 21.5329 15.3242 21.0506 15.2975C17.9978 15.7771 14.9145 16.037 11.8245 16.0751H11.8084Z" fill="url(#paint0_linear_2591_800)"/>
<path d="M34.5544 30.8635C34.024 30.8642 33.5071 30.6966 33.078 30.3849L32.9444 30.2923C32.9269 30.2805 32.8977 30.2568 32.8704 30.2301L25.5533 24.9606C25.485 24.914 25.4266 24.8542 25.3817 24.7848C25.3368 24.7153 25.3062 24.6376 25.2917 24.5562C25.2772 24.4747 25.2791 24.3912 25.2973 24.3105C25.3155 24.2299 25.3496 24.1536 25.3976 24.0863C25.4456 24.0189 25.5066 23.9618 25.577 23.9184C25.6473 23.8749 25.7257 23.8459 25.8074 23.8331C25.8891 23.8203 25.9725 23.8239 26.0528 23.8437C26.1331 23.8636 26.2086 23.8992 26.275 23.9486L26.7723 24.3029L33.6194 29.2405C33.6399 29.2552 33.6594 29.2712 33.6779 29.2883L33.7966 29.371C34.0662 29.5643 34.3997 29.6467 34.7283 29.6012C35.057 29.5558 35.3556 29.3859 35.5626 29.1267C35.6896 28.9664 35.7762 28.7779 35.815 28.5771C35.8539 28.3763 35.8439 28.1691 35.7858 27.973C35.716 27.726 35.5716 27.5065 35.3724 27.3445L25.5856 19.371C21.8379 21.3602 19.1829 20.337 17.9154 19.527C17.706 19.3907 17.5359 19.2018 17.4222 18.9793C17.3085 18.7567 17.2551 18.5082 17.2673 18.2586C17.2796 18.009 17.3571 17.7669 17.4921 17.5566C17.6271 17.3463 17.8148 17.175 18.0366 17.0598L23.6387 14.0847C23.9963 13.8977 24.3873 13.7833 24.7893 13.748C25.1913 13.7128 25.5963 13.7576 25.981 13.8796L29.2948 14.955C30.2704 15.2759 31.3286 15.2378 32.2786 14.8475L33.722 14.2563C33.7976 14.2253 33.8785 14.2095 33.9601 14.2098C34.0418 14.2101 34.1226 14.2265 34.1979 14.258C34.2732 14.2895 34.3416 14.3356 34.3991 14.3935C34.4567 14.4515 34.5022 14.5202 34.5332 14.5957C34.5642 14.6713 34.58 14.7522 34.5797 14.8338C34.5794 14.9155 34.563 14.9963 34.5315 15.0716C34.5 15.1469 34.454 15.2153 34.396 15.2729C34.3381 15.3304 34.2694 15.376 34.1938 15.4069L32.7517 15.9975C31.5284 16.501 30.1653 16.5504 28.9088 16.1367L25.598 15.0619C25.3713 14.9907 25.1327 14.965 24.8959 14.9863C24.6592 15.0077 24.429 15.0756 24.2187 15.1863L18.6154 18.162C18.5842 18.1767 18.5577 18.1997 18.5388 18.2286C18.5199 18.2574 18.5094 18.291 18.5085 18.3254C18.5059 18.3566 18.5119 18.3879 18.526 18.4159C18.54 18.4438 18.5615 18.4674 18.588 18.484C19.8934 19.3182 22.1344 19.9298 25.3426 18.0867C25.4517 18.0241 25.5772 17.996 25.7027 18.0062C25.8281 18.0164 25.9474 18.0644 26.045 18.1439L36.1525 26.3804C36.5489 26.7002 36.8371 27.1343 36.978 27.6236C37.0897 28.0088 37.1085 28.415 37.0328 28.8089C36.9572 29.2027 36.7893 29.573 36.5429 29.8895C36.3082 30.1933 36.0068 30.4391 35.662 30.608C35.3173 30.7769 34.9383 30.8643 34.5544 30.8635V30.8635Z" fill="url(#paint1_linear_2591_800)"/>
<path d="M31.9744 33.7447C31.4476 33.7453 30.9337 33.5817 30.5042 33.2766L23.7845 28.5088C23.6532 28.4122 23.5651 28.2679 23.5392 28.107C23.5132 27.946 23.5516 27.7814 23.6459 27.6484C23.7402 27.5155 23.8829 27.4249 24.0434 27.3962C24.2039 27.3675 24.3692 27.4029 24.5037 27.4949L31.2235 32.2621C31.5054 32.4463 31.8476 32.5144 32.1785 32.4521C32.5094 32.3899 32.8035 32.2022 32.9993 31.9283C33.1951 31.6543 33.2775 31.3153 33.2292 30.982C33.1809 30.6488 33.0057 30.347 32.7402 30.1399L26.0429 25.313C25.9194 25.2132 25.8389 25.0699 25.8177 24.9125C25.7966 24.7551 25.8365 24.5957 25.9292 24.4668C26.0219 24.3379 26.1604 24.2493 26.3163 24.2193C26.4723 24.1893 26.6337 24.2201 26.7677 24.3054L33.4669 29.1329C33.9029 29.4486 34.2278 29.8943 34.395 30.406C34.5621 30.9178 34.5629 31.4693 34.3973 31.9816C34.2316 32.4938 33.908 32.9404 33.4728 33.2574C33.0377 33.5743 32.5133 33.7454 31.975 33.746L31.9744 33.7447Z" fill="url(#paint2_linear_2591_800)"/>
<path d="M29.0794 36.2356C28.5791 36.2354 28.0907 36.082 27.6801 35.7961L21.6585 31.625C21.5229 31.5311 21.4301 31.3872 21.4007 31.2249C21.3712 31.0626 21.4073 30.8953 21.5012 30.7597C21.5951 30.6241 21.739 30.5313 21.9013 30.5018C22.0636 30.4724 22.2309 30.5085 22.3665 30.6024L28.3882 34.7735C28.5204 34.865 28.6694 34.9295 28.8265 34.9634C28.9837 34.9973 29.146 34.9998 29.3042 34.971C29.4624 34.9421 29.6133 34.8824 29.7484 34.7952C29.8834 34.7079 30 34.595 30.0914 34.4627C30.2733 34.1975 30.344 33.8715 30.2882 33.5548C30.2324 33.2381 30.0546 32.9559 29.793 32.7688L23.8006 28.5181C23.7325 28.4715 23.6743 28.4119 23.6295 28.3425C23.5847 28.2732 23.5541 28.1957 23.5396 28.1145C23.525 28.0332 23.5268 27.9499 23.5448 27.8693C23.5628 27.7888 23.5967 27.7126 23.6445 27.6453C23.6922 27.578 23.7529 27.5209 23.823 27.4773C23.893 27.4336 23.9711 27.4044 24.0526 27.3913C24.1341 27.3781 24.2173 27.3814 24.2976 27.4008C24.3778 27.4202 24.4533 27.4553 24.5198 27.5043L30.5123 31.7549C31.0397 32.1319 31.3983 32.7007 31.5109 33.3392C31.6235 33.9776 31.4812 34.6348 31.1146 35.1695C30.9314 35.4367 30.697 35.665 30.4251 35.841C30.1531 36.0171 29.8489 36.1374 29.5301 36.1952C29.3814 36.2223 29.2306 36.2358 29.0794 36.2356V36.2356Z" fill="url(#paint3_linear_2591_800)"/>
<path d="M25.5241 38.2794C25.0891 38.2772 24.6624 38.1611 24.2864 37.9424L20.944 36.0154C20.8024 35.9324 20.6993 35.7967 20.6574 35.638C20.6154 35.4793 20.6379 35.3105 20.72 35.1683C20.8021 35.0262 20.9371 34.9223 21.0955 34.8793C21.2539 34.8362 21.4229 34.8576 21.5656 34.9388L24.9074 36.8658C25.1899 37.0253 25.5236 37.068 25.8372 36.9848C26.1508 36.9017 26.4194 36.6992 26.5858 36.4207C26.7438 36.1537 26.7941 35.8365 26.7263 35.5338C26.6585 35.231 26.4777 34.9655 26.2209 34.7915L21.9504 31.8332C21.8833 31.7867 21.826 31.7274 21.7818 31.6588C21.7376 31.5902 21.7073 31.5135 21.6927 31.4332C21.6782 31.3529 21.6796 31.2704 21.6968 31.1907C21.7141 31.1109 21.7469 31.0353 21.7934 30.9682C21.8399 30.9011 21.8991 30.8438 21.9678 30.7996C22.0364 30.7554 22.1131 30.7251 22.1934 30.7105C22.2737 30.696 22.3561 30.6974 22.4359 30.7146C22.5157 30.7319 22.5913 30.7647 22.6584 30.8112L26.9283 33.7689C27.3618 34.069 27.6881 34.4996 27.8598 34.9981C28.0314 35.4966 28.0395 36.0368 27.8827 36.5402C27.7259 37.0435 27.4125 37.4837 26.9882 37.7965C26.5638 38.1093 26.0506 38.2785 25.5234 38.2794H25.5241Z" fill="url(#paint4_linear_2591_800)"/>
<path d="M18.4871 37.9084C17.9786 37.9092 17.4819 37.7548 17.0634 37.4658C16.6449 37.1768 16.3246 36.7671 16.1451 36.2912C15.9657 35.8154 15.9357 35.2961 16.0591 34.8028C16.1826 34.3095 16.4536 33.8655 16.8361 33.5303L18.4964 32.0757C18.7432 31.8591 19.0301 31.6932 19.341 31.5875C19.6518 31.4818 19.9805 31.4384 20.3081 31.4597C20.6357 31.481 20.956 31.5666 21.2505 31.7117C21.545 31.8567 21.8081 32.0584 22.0248 32.3051C22.2413 32.5519 22.4072 32.8389 22.5128 33.1498C22.6185 33.4606 22.6619 33.7893 22.6405 34.1169C22.6191 34.4445 22.5335 34.7647 22.3883 35.0593C22.2432 35.3538 22.0415 35.6168 21.7947 35.8334L20.1344 37.2911C19.6787 37.6904 19.093 37.9099 18.4871 37.9084V37.9084ZM20.145 32.6973C19.8401 32.6966 19.5455 32.8071 19.3163 33.0082L17.6554 34.4646C17.5313 34.5735 17.4299 34.7057 17.3569 34.8537C17.2839 35.0018 17.2408 35.1628 17.23 35.3275C17.2193 35.4922 17.2411 35.6574 17.2941 35.8137C17.3472 35.97 17.4306 36.1143 17.5394 36.2384C17.7593 36.489 18.0697 36.642 18.4023 36.6637C18.567 36.6745 18.7323 36.6527 18.8886 36.5996C19.0448 36.5465 19.1892 36.4632 19.3132 36.3543L20.9736 34.8966C21.1651 34.728 21.3008 34.5051 21.3625 34.2576C21.4242 34.01 21.4091 33.7495 21.3191 33.5107C21.2292 33.2719 21.0686 33.0662 20.8589 32.9209C20.6491 32.7756 20.4001 32.6976 20.145 32.6973V32.6973Z" fill="url(#paint5_linear_2591_800)"/>
<path d="M14.7205 36.215C14.6651 36.215 14.6098 36.215 14.5545 36.21C14.2267 36.1895 13.9061 36.1042 13.6114 35.9591C13.3167 35.814 13.0537 35.6119 12.8376 35.3646C12.618 35.1178 12.4493 34.8301 12.3412 34.5179C12.2332 34.2058 12.1878 33.8754 12.2077 33.5456C12.2276 33.2159 12.3125 32.8933 12.4574 32.5965C12.6023 32.2996 12.8043 32.0343 13.052 31.8157L15.8257 29.3808C16.0724 29.1642 16.3594 28.9983 16.6703 28.8926C16.9811 28.7869 17.3097 28.7435 17.6374 28.7648C17.965 28.7861 18.2852 28.8717 18.5798 29.0168C18.8743 29.1618 19.1374 29.3635 19.354 29.6102L18.9046 30.041L19.3714 29.6307C19.5881 29.8774 19.7541 30.1644 19.8598 30.4753C19.9656 30.7861 20.009 31.1148 19.9877 31.4424C19.9664 31.7701 19.8808 32.0903 19.7357 32.3849C19.5906 32.6794 19.3889 32.9425 19.1421 33.1591L16.3659 35.594C15.9117 35.995 15.3264 36.2159 14.7205 36.215V36.215ZM17.4711 30.0025C17.1667 30.0016 16.8724 30.1122 16.6438 30.3133L13.8701 32.7482C13.6844 32.9158 13.5521 33.1344 13.4897 33.3767C13.4272 33.619 13.4374 33.8743 13.519 34.1108C13.6006 34.3473 13.7499 34.5546 13.9484 34.7069C14.1468 34.8592 14.3857 34.9498 14.6353 34.9674C14.8001 34.9787 14.9656 34.957 15.1219 34.9037C15.2783 34.8503 15.4224 34.7663 15.546 34.6566L18.3196 32.2217C18.4438 32.1128 18.5452 31.9805 18.6182 31.8324C18.6912 31.6843 18.7342 31.5233 18.745 31.3586C18.7557 31.1938 18.7339 31.0286 18.6808 30.8722C18.6276 30.7159 18.5442 30.5716 18.4353 30.4476L18.4172 30.427C18.3088 30.3034 18.1769 30.2025 18.0292 30.1301C17.8816 30.0576 17.7211 30.0151 17.5569 30.005C17.5277 30.0037 17.4985 30.0031 17.4705 30.0031L17.4711 30.0025Z" fill="url(#paint6_linear_2591_800)"/>
<path d="M11.5825 33.9331C11.5278 33.9331 11.4725 33.9331 11.4166 33.9282C11.0887 33.9076 10.7682 33.8224 10.4735 33.6773C10.1788 33.5322 9.9158 33.3301 9.69964 33.0828L9.63189 33.0019C9.19495 32.5036 8.97381 31.8521 9.01705 31.1907C9.0603 30.5293 9.3644 29.9121 9.86251 29.4749L13.0782 26.6521C13.3248 26.4354 13.6118 26.2694 13.9227 26.1637C14.2335 26.0579 14.5622 26.0145 14.8898 26.0358C15.2175 26.0571 15.5377 26.1427 15.8323 26.2878C16.1268 26.4329 16.3899 26.6347 16.6065 26.8815L16.6767 26.9617C17.1138 27.46 17.3351 28.1115 17.2918 28.773C17.2486 29.4344 16.9444 30.0516 16.4461 30.4887L13.2304 33.3115C12.7756 33.7132 12.1894 33.9344 11.5825 33.9331V33.9331ZM14.7236 27.2743C14.4191 27.2736 14.1249 27.3841 13.8962 27.5851L10.6806 30.4079C10.4297 30.628 10.2766 30.9386 10.2548 31.2715C10.233 31.6045 10.3443 31.9324 10.5643 32.1833L10.6346 32.2635C10.8547 32.5136 11.1651 32.6661 11.4976 32.6876C11.8302 32.709 12.1576 32.5976 12.408 32.3778L15.6237 29.5551C15.7478 29.4462 15.8492 29.3139 15.9222 29.1658C15.9952 29.0177 16.0383 28.8567 16.049 28.692C16.0598 28.5272 16.0379 28.362 15.9848 28.2056C15.9317 28.0493 15.8482 27.905 15.7393 27.781L15.6703 27.702C15.5618 27.5779 15.4297 27.4765 15.2817 27.4037C15.1337 27.3309 14.9727 27.2882 14.8081 27.2781C14.7789 27.2756 14.7516 27.2743 14.7236 27.2743V27.2743Z" fill="url(#paint7_linear_2591_800)"/>
<path d="M8.8834 31.1664C8.8287 31.1664 8.77275 31.1664 8.71742 31.1608C8.22087 31.1295 7.74473 30.9517 7.34919 30.6499C6.95366 30.3481 6.65648 29.9357 6.49522 29.4651C6.33395 28.9944 6.31584 28.4864 6.44318 28.0055C6.57051 27.5245 6.83758 27.0921 7.21061 26.7628L9.22405 24.9955C9.47074 24.7789 9.75772 24.6129 10.0686 24.5071C10.3794 24.4014 10.7081 24.3579 11.0357 24.3792C11.3634 24.4005 11.6836 24.4862 11.9782 24.6313C12.2727 24.7764 12.5358 24.9781 12.7524 25.2249L12.7741 25.2498C12.9908 25.4965 13.1568 25.7835 13.2625 26.0943C13.3683 26.4052 13.4117 26.7338 13.3904 27.0615C13.3691 27.3891 13.2835 27.7094 13.1384 28.0039C12.9933 28.2985 12.7916 28.5616 12.5447 28.7781L10.5313 30.5454C10.0764 30.947 9.49016 31.1679 8.8834 31.1664ZM10.8726 25.6172C10.5681 25.6164 10.2739 25.7269 10.0452 25.928L8.03178 27.6953C7.90767 27.8041 7.80623 27.9364 7.73325 28.0845C7.66027 28.2326 7.61718 28.3936 7.60644 28.5584C7.5957 28.7231 7.61753 28.8884 7.67067 29.0447C7.72381 29.201 7.80723 29.3453 7.91615 29.4694C8.02422 29.5974 8.15661 29.7026 8.30566 29.779C8.4547 29.8555 8.61744 29.9016 8.78443 29.9146C8.95142 29.9277 9.11934 29.9075 9.27847 29.8552C9.43759 29.8029 9.58474 29.7195 9.7114 29.6099L11.7248 27.8426C11.8489 27.7337 11.9504 27.6014 12.0234 27.4533C12.0963 27.3052 12.1394 27.1442 12.1502 26.9795C12.1609 26.8147 12.1391 26.6495 12.0859 26.4932C12.0328 26.3368 11.9494 26.1925 11.8405 26.0685L11.8187 26.0436C11.7101 25.9193 11.5779 25.8177 11.4298 25.7448C11.2817 25.672 11.1206 25.6292 10.9559 25.619C10.9254 25.6184 10.8975 25.6172 10.8695 25.6172H10.8726Z" fill="url(#paint8_linear_2591_800)"/>
<path d="M7.75408 27.7318C7.61954 27.7321 7.48858 27.6885 7.38111 27.6075L5.25703 25.9913C5.19205 25.9419 5.13744 25.8801 5.09632 25.8096C5.0552 25.7391 5.02838 25.6611 5.01738 25.5802C5.00639 25.4993 5.01143 25.4171 5.03223 25.3381C5.05303 25.2592 5.08918 25.1851 5.13861 25.1201C5.23843 24.9889 5.3863 24.9027 5.54968 24.8805C5.63058 24.8695 5.71285 24.8745 5.7918 24.8953C5.87075 24.9161 5.94483 24.9523 6.00981 25.0017L8.13389 26.6179C8.23852 26.6964 8.31574 26.8058 8.35455 26.9307C8.39337 27.0556 8.39179 27.1896 8.35006 27.3136C8.30833 27.4375 8.22857 27.5451 8.12212 27.6211C8.01568 27.6971 7.88798 27.7376 7.75719 27.7368L7.75408 27.7318Z" fill="url(#paint9_linear_2591_800)"/>
<path d="M36.3793 28.4206C36.2564 28.4206 36.1362 28.3841 36.034 28.3158C35.9318 28.2475 35.8522 28.1504 35.8051 28.0369C35.7581 27.9233 35.7458 27.7983 35.7698 27.6778C35.7937 27.5572 35.8529 27.4464 35.9398 27.3595L39.4277 23.8704C39.545 23.7571 39.702 23.6945 39.865 23.6959C40.028 23.6973 40.1839 23.7627 40.2992 23.8779C40.4144 23.9932 40.4798 24.1491 40.4812 24.3121C40.4826 24.4751 40.42 24.6321 40.3067 24.7493L36.8188 28.2372C36.7612 28.2952 36.6927 28.3412 36.6173 28.3727C36.5419 28.4041 36.461 28.4204 36.3793 28.4206V28.4206Z" fill="url(#paint10_linear_2591_800)"/>
<path d="M41.1301 27.1307C41.0238 27.1308 40.9192 27.1037 40.8264 27.0519C40.7336 27.0001 40.6556 26.9253 40.5999 26.8348L33.0099 14.4894C32.9297 14.3588 32.9006 14.2032 32.9281 14.0524C32.9556 13.9017 33.0379 13.7664 33.1591 13.6726L40.6763 7.8505C40.7588 7.78659 40.8561 7.74449 40.9592 7.72807C41.0623 7.71166 41.1678 7.72146 41.2661 7.75658C41.3644 7.79169 41.4523 7.85099 41.5216 7.929C41.5909 8.00701 41.6395 8.10123 41.6628 8.20296L45.3596 24.3321C45.3903 24.4634 45.3775 24.6011 45.3231 24.7244C45.2687 24.8477 45.1757 24.9501 45.0581 25.0159L41.4335 27.053C41.3407 27.1045 41.2362 27.1313 41.1301 27.1307V27.1307ZM34.3613 14.3129L41.3458 25.673L44.0443 24.1562L40.6689 9.42879L34.3613 14.3129Z" fill="url(#paint11_linear_2591_800)"/>
<path d="M4.86754 27.3514C4.76108 27.3514 4.65641 27.324 4.56357 27.2719L0.938893 25.2379C0.821299 25.172 0.728306 25.0697 0.673927 24.9464C0.619548 24.823 0.60673 24.6854 0.637406 24.5541L4.33481 8.42677C4.35815 8.32505 4.40673 8.23083 4.47606 8.15282C4.5454 8.07481 4.63326 8.01551 4.73155 7.98039C4.82984 7.94528 4.93538 7.93547 5.03846 7.95189C5.14153 7.9683 5.23881 8.01041 5.32133 8.07432L12.8392 13.8958C12.9604 13.9896 13.0427 14.1249 13.0702 14.2756C13.0977 14.4264 13.0686 14.582 12.9884 14.7126L5.39778 27.058C5.34178 27.1481 5.26365 27.2223 5.17084 27.2737C5.07803 27.3251 4.97362 27.3518 4.86754 27.3514V27.3514ZM1.95338 24.3813L4.65184 25.8974L11.6364 14.5367L5.32878 9.65261L1.95338 24.3813Z" fill="url(#paint12_linear_2591_800)"/>
<defs>
<linearGradient id="paint0_linear_2591_800" x1="11.1758" y1="14.0485" x2="22.9444" y2="17.683" gradientUnits="userSpaceOnUse">
<stop stop-color="#7AEB8C"/>
<stop offset="0.0001" stop-color="#21A636"/>
<stop offset="1" stop-color="#066716"/>
</linearGradient>
<linearGradient id="paint1_linear_2591_800" x1="17.2656" y1="13.7364" x2="38.0171" y2="14.9614" gradientUnits="userSpaceOnUse">
<stop stop-color="#7AEB8C"/>
<stop offset="0.0001" stop-color="#21A636"/>
<stop offset="1" stop-color="#066716"/>
</linearGradient>
<linearGradient id="paint2_linear_2591_800" x1="23.5312" y1="24.2081" x2="35.042" y2="24.885" gradientUnits="userSpaceOnUse">
<stop stop-color="#7AEB8C"/>
<stop offset="0.0001" stop-color="#21A636"/>
<stop offset="1" stop-color="#066716"/>
</linearGradient>
<linearGradient id="paint3_linear_2591_800" x1="21.3906" y1="27.3834" x2="32.0305" y2="28.0064" gradientUnits="userSpaceOnUse">
<stop stop-color="#7AEB8C"/>
<stop offset="0.0001" stop-color="#21A636"/>
<stop offset="1" stop-color="#066716"/>
</linearGradient>
<linearGradient id="paint4_linear_2591_800" x1="20.6367" y1="30.7006" x2="28.3512" y2="31.0828" gradientUnits="userSpaceOnUse">
<stop stop-color="#7AEB8C"/>
<stop offset="0.0001" stop-color="#21A636"/>
<stop offset="1" stop-color="#066716"/>
</linearGradient>
<linearGradient id="paint5_linear_2591_800" x1="15.9844" y1="31.4544" x2="22.9664" y2="31.8222" gradientUnits="userSpaceOnUse">
<stop stop-color="#7AEB8C"/>
<stop offset="0.0001" stop-color="#21A636"/>
<stop offset="1" stop-color="#066716"/>
</linearGradient>
<linearGradient id="paint6_linear_2591_800" x1="12.2031" y1="28.7595" x2="20.3673" y2="29.1948" gradientUnits="userSpaceOnUse">
<stop stop-color="#7AEB8C"/>
<stop offset="0.0001" stop-color="#21A636"/>
<stop offset="1" stop-color="#066716"/>
</linearGradient>
<linearGradient id="paint7_linear_2591_800" x1="9.01172" y1="26.0305" x2="17.6951" y2="26.4951" gradientUnits="userSpaceOnUse">
<stop stop-color="#7AEB8C"/>
<stop offset="0.0001" stop-color="#21A636"/>
<stop offset="1" stop-color="#066716"/>
</linearGradient>
<linearGradient id="paint8_linear_2591_800" x1="6.35937" y1="24.374" x2="13.7342" y2="24.7638" gradientUnits="userSpaceOnUse">
<stop stop-color="#7AEB8C"/>
<stop offset="0.0001" stop-color="#21A636"/>
<stop offset="1" stop-color="#066716"/>
</linearGradient>
<linearGradient id="paint9_linear_2591_800" x1="5.01172" y1="24.8748" x2="8.54182" y2="25.087" gradientUnits="userSpaceOnUse">
<stop stop-color="#7AEB8C"/>
<stop offset="0.0001" stop-color="#21A636"/>
<stop offset="1" stop-color="#066716"/>
</linearGradient>
<linearGradient id="paint10_linear_2591_800" x1="35.7578" y1="23.6959" x2="40.7094" y2="23.9485" gradientUnits="userSpaceOnUse">
<stop stop-color="#7AEB8C"/>
<stop offset="0.0001" stop-color="#21A636"/>
<stop offset="1" stop-color="#066716"/>
</linearGradient>
<linearGradient id="paint11_linear_2591_800" x1="32.918" y1="7.72034" x2="45.9977" y2="8.14875" gradientUnits="userSpaceOnUse">
<stop stop-color="#7AEB8C"/>
<stop offset="0.0001" stop-color="#21A636"/>
<stop offset="1" stop-color="#066716"/>
</linearGradient>
<linearGradient id="paint12_linear_2591_800" x1="0.621094" y1="7.94415" x2="13.7021" y2="8.37271" gradientUnits="userSpaceOnUse">
<stop stop-color="#7AEB8C"/>
<stop offset="0.0001" stop-color="#21A636"/>
<stop offset="1" stop-color="#066716"/>
</linearGradient>
</defs>
</svg>
