<svg width="25" height="25" viewBox="0 0 25 25" fill="none" xmlns="http://www.w3.org/2000/svg">
<path d="M7.55954 12.6018C8.59683 14.7225 10.3158 16.4336 12.4412 17.4613C12.5967 17.535 12.7687 17.5669 12.9403 17.5539C13.1119 17.5409 13.2771 17.4835 13.4198 17.3872L16.5492 15.3004C16.6877 15.2082 16.8469 15.1518 17.0126 15.1366C17.1782 15.1214 17.3451 15.1478 17.498 15.2133L23.3526 17.7224C23.5515 17.8069 23.7175 17.9537 23.8257 18.1408C23.9339 18.3278 23.9783 18.545 23.9524 18.7595C23.7673 20.2075 23.0608 21.5384 21.9652 22.503C20.8695 23.4676 19.4598 23.9998 18 23.9999C13.4913 23.9999 9.1673 22.2088 5.97919 19.0207C2.79107 15.8326 1 11.5086 1 6.99988C1.00008 5.5401 1.53224 4.13039 2.49685 3.03472C3.46146 1.93905 4.79237 1.23255 6.24037 1.0475C6.45489 1.02154 6.67204 1.066 6.85909 1.17418C7.04614 1.28236 7.19298 1.4484 7.27746 1.64728L9.78877 7.50702C9.85373 7.65858 9.8802 7.82386 9.86582 7.98813C9.85144 8.1524 9.79666 8.31057 9.70636 8.44855L7.62681 11.626C7.53216 11.769 7.47621 11.934 7.46442 12.105C7.45263 12.2761 7.4854 12.4472 7.55954 12.6018V12.6018Z" stroke="#21A636" stroke-width="2" stroke-linecap="round" stroke-linejoin="round"/>
</svg>
