<svg width="14" height="14" viewBox="0 0 14 14" fill="none" xmlns="http://www.w3.org/2000/svg">
<path d="M0.487578 4.23148C0.756917 4.23148 0.975157 4.01318 0.975157 3.74391V1.665L4.11549 4.80468C4.21073 4.89986 4.33548 4.94744 4.46024 4.94744C4.58506 4.94744 4.70988 4.89986 4.80505 4.80462C4.99547 4.6142 4.99547 4.30547 4.80499 4.11512L1.66453 0.97537H3.74389C4.01316 0.97537 4.23146 0.757065 4.23146 0.487792C4.23146 0.218519 4.01322 0.000213623 3.74389 0.000213623H0.487578C0.21824 0.000213623 0 0.218519 0 0.487792V3.74397C0 4.01318 0.21824 4.23148 0.487578 4.23148Z" fill="#041306"/>
<path d="M13.514 9.76859C13.2447 9.76859 13.0264 9.98689 13.0264 10.2562V12.3351L9.78941 9.09813C9.59893 8.90772 9.29026 8.90772 9.09984 9.09813C8.90943 9.28855 8.90943 9.59728 9.09984 9.78763L12.3368 13.0246H10.2579C9.9886 13.0246 9.77036 13.2429 9.77036 13.5121C9.77036 13.7814 9.9886 13.9997 10.2579 13.9997H13.5141C13.7834 13.9997 14.0016 13.7814 14.0016 13.5121V10.2562C14.0016 9.98689 13.7833 9.76859 13.514 9.76859Z" fill="#041306"/>
<path d="M4.21183 9.09814L0.975157 12.3351V10.2562C0.975157 9.9869 0.756917 9.76859 0.487578 9.76859C0.21824 9.76859 0 9.9869 0 10.2562V13.5123C0 13.7816 0.21824 13.9999 0.487578 13.9999H3.74356C4.01284 13.9999 4.23114 13.7816 4.23114 13.5123C4.23114 13.243 4.0129 13.0247 3.74356 13.0247H1.66466L4.9014 9.78764C5.09181 9.59723 5.09181 9.28849 4.90133 9.09808C4.71105 8.90773 4.40231 8.90773 4.21183 9.09814Z" fill="#041306"/>
<path d="M13.5106 0.00012207H10.2545C9.98515 0.00012207 9.76691 0.218427 9.76691 0.4877C9.76691 0.756974 9.98515 0.975279 10.2545 0.975279H12.3335L9.19359 4.11535C9.00317 4.30576 9.00317 4.6145 9.19365 4.80491C9.28883 4.90009 9.41364 4.94768 9.5384 4.94768C9.66316 4.94768 9.78798 4.90002 9.88322 4.80485L13.0231 1.66478V3.74381C13.0231 4.01309 13.2413 4.23139 13.5107 4.23139C13.78 4.23139 13.9983 4.01309 13.9983 3.74381V0.4877C13.9982 0.218362 13.7799 0.00012207 13.5106 0.00012207Z" fill="#041306"/>
</svg>
