<svg width="47" height="37" viewBox="0 0 47 37" fill="none" xmlns="http://www.w3.org/2000/svg">
<path d="M14.5616 13.9058C15.2226 14.1739 15.8003 14.5069 16.2713 14.8894V12.537C16.2713 11.6784 16.6693 10.8899 17.3668 10.2264C17.8742 9.74504 18.5429 9.32865 19.3263 9.00342C19.0556 8.42051 18.9046 7.76995 18.9046 7.08826V2.89894C18.9046 2.10793 19.2273 1.38971 19.7503 0.869313C20.2708 0.346347 20.989 0.0236816 21.78 0.0236816H25.2226C26.0136 0.0236816 26.7318 0.346347 27.2549 0.869313C27.7754 1.38971 28.0979 2.10793 28.0979 2.89894V7.08835C28.0979 7.77013 27.9471 8.42069 27.6764 9.00617C28.4546 9.32884 29.1181 9.73733 29.6203 10.2109C30.3281 10.8797 30.7341 11.6733 30.7341 12.5372V14.8922C31.2051 14.5071 31.7852 14.174 32.4488 13.9033C32.1808 13.3204 32.03 12.6725 32.03 11.9934V7.80391C32.03 7.0129 32.3553 6.29468 32.8758 5.77429C33.3961 5.25123 34.1143 4.92865 34.9079 4.92865H38.348C39.1391 4.92865 39.8598 5.25132 40.3803 5.77429C40.9006 6.29477 41.2234 7.0129 41.2234 7.80391V11.9933C41.2234 12.6724 41.0751 13.3203 40.8071 13.9007C41.6058 14.2286 42.2877 14.6501 42.8028 15.1367C43.5002 15.8002 43.8984 16.5861 43.8984 17.4422V22.4981H46.3132C46.6931 22.4981 47.0002 22.8078 47.0002 23.1877C47.0002 23.3516 46.943 23.5025 46.8467 23.6197L44.3224 27.2938L46.8779 31.0097C47.0939 31.3219 47.0133 31.7487 46.7037 31.9646C46.5889 32.0426 46.451 32.087 46.3132 32.087H31.2388L31.4938 35.3604C31.525 35.7742 31.3844 36.1618 31.1322 36.4533C30.6872 36.9711 29.9533 37.122 29.3418 36.828L23.5027 34.4159L17.5775 36.8619C16.9557 37.1169 16.24 36.9269 15.8264 36.3987C15.5999 36.1072 15.4829 35.7273 15.5088 35.3604L15.7639 32.087H10.8381C10.4582 32.087 10.1511 31.7799 10.1511 31.4C10.1511 31.0201 10.4583 30.7104 10.8381 30.7104H15.8706L16.0058 28.9696L11.8868 24.1348C11.8165 24.0646 11.7463 23.9605 11.6968 23.8747H1.9961L4.07244 26.8931C4.23649 27.1221 4.24686 27.4369 4.07768 27.6841L1.9961 30.7104H7.72063C8.10058 30.7104 8.40763 31.0201 8.40763 31.4C8.40763 31.7799 8.10048 32.087 7.72063 32.087H0.689737C0.30979 32.087 0.00273011 31.7799 0.00273011 31.4C0.00273011 31.236 0.0599194 31.0851 0.156214 30.9654L2.68044 27.2937L0.125003 23.5779C-0.202894 23.1017 0.156214 22.498 0.715807 22.498H3.12281V19.0034C3.12281 18.6235 3.42978 18.3138 3.80963 18.3138C4.18949 18.3138 4.49921 18.6235 4.49921 19.0034V22.498H11.6292C11.7152 22.3106 11.8921 22.0661 12.0715 21.9411C12.2641 21.7902 12.4905 21.7017 12.7272 21.6446L16.2714 20.7885V17.4421C16.2714 16.979 16.0242 16.5262 15.5923 16.1202C15.1525 15.7065 14.5332 15.3474 13.7863 15.0768C12.9146 16.0369 11.6864 16.5886 10.3853 16.5886C9.08418 16.5886 7.85603 16.0369 6.98167 15.0768C6.23747 15.3474 5.40478 15.7871 4.90265 16.4168C4.66334 16.7108 4.23144 16.7577 3.93732 16.5209C3.64063 16.2841 3.59382 15.8522 3.83065 15.5555C4.43431 14.8035 5.32161 14.2675 6.20626 13.9032C5.93821 13.3202 5.78748 12.6723 5.78748 11.9932V9.06584V7.80391C5.78748 7.0129 6.11272 6.29468 6.63302 5.77429C7.15351 5.25123 7.87173 4.92865 8.66531 4.92865H14.2937C14.6737 4.92865 14.9807 5.23828 14.9807 5.61823V9.06602V11.9934C14.9806 12.6751 14.8296 13.323 14.5616 13.9058ZM39.8466 10.8666L35.959 9.54998L33.409 10.8016V11.9933C33.409 12.8781 33.7706 13.6821 34.3535 14.265C34.9391 14.8505 35.743 15.2122 36.6278 15.2122C37.5126 15.2122 38.3166 14.8505 38.8994 14.265C39.4849 13.6821 39.8465 12.8781 39.8465 11.9933V10.8666H39.8466ZM33.409 9.27413L35.5713 8.21507C35.7353 8.11877 35.9408 8.0928 36.1334 8.15779L39.8466 9.41457V7.80391C39.8466 7.39275 39.6775 7.01804 39.407 6.74742C39.1337 6.47424 38.759 6.30505 38.3479 6.30505H34.9078C34.4941 6.30505 34.1219 6.47424 33.8489 6.74742C33.5756 7.01804 33.4091 7.39275 33.4091 7.80391V9.27413H33.409ZM7.16379 8.37902H13.6041V6.30515H8.66512C8.25149 6.30515 7.87677 6.47433 7.60607 6.74751C7.33297 7.01813 7.16379 7.39284 7.16379 7.804V8.37902ZM13.6041 9.75551H7.16379V11.9933C7.16379 12.8781 7.52813 13.6821 8.11095 14.265C8.69652 14.8505 9.50047 15.2122 10.3852 15.2122C11.2699 15.2122 12.0741 14.8505 12.657 14.265C13.2424 13.6821 13.604 12.8781 13.604 11.9933V9.75551H13.6041ZM26.7214 5.85497C25.6857 6.01369 23.9632 6.01369 22.5424 4.74644C22.0481 5.03789 21.2518 5.37093 20.2812 5.27987V7.08835C20.2812 7.97309 20.6455 8.77714 21.2283 9.36005C21.8112 9.94553 22.6179 10.3072 23.5026 10.3072C24.3872 10.3072 25.1914 9.94553 25.7742 9.36005C26.3596 8.77714 26.7213 7.97309 26.7213 7.08835V5.85497H26.7214ZM20.2812 3.89557C20.9422 3.99967 21.6734 3.77587 22.1728 3.33093C22.4591 3.08372 22.891 3.11494 23.1408 3.40116C24.3093 4.74644 25.9356 4.62683 26.7214 4.46545V2.89894C26.7214 2.48778 26.5522 2.11307 26.2792 1.84245C26.0085 1.56926 25.6337 1.40008 25.2226 1.40008H21.78C21.3689 1.40008 20.9942 1.56926 20.7234 1.84245C20.4503 2.11307 20.2812 2.48778 20.2812 2.89894V3.89557ZM33.2241 15.0742C32.4591 15.3526 31.8269 15.7222 31.382 16.1463C30.9681 16.5444 30.734 16.9894 30.734 17.4421V20.7885L34.3614 21.6654C34.7621 21.7617 35.0899 22.014 35.2876 22.3419C35.319 22.3914 35.3475 22.4434 35.3736 22.4981H42.5217V17.4422C42.5217 16.9842 42.2796 16.5341 41.8556 16.1334C41.4158 15.7145 40.7886 15.3527 40.0288 15.077C39.9794 15.1316 39.9274 15.1862 39.8754 15.2382C39.0428 16.0709 37.8925 16.5888 36.6279 16.5888C35.3632 16.5888 34.213 16.0709 33.3804 15.2382C33.3257 15.1861 33.2736 15.1315 33.2241 15.0742ZM20.1042 10.177C19.3627 10.4502 18.7483 10.8093 18.314 11.2231C17.8898 11.6264 17.6477 12.0766 17.6477 12.5371V17.4421V20.4579L18.8655 20.1639L22.2198 14.7021C22.4384 14.3482 22.7792 14.1166 23.1539 14.0255C23.7915 13.8746 24.4551 14.1556 24.7907 14.7124L28.1397 20.1639L29.3549 20.4579V17.4421V12.5371C29.3549 12.0714 29.1104 11.6186 28.6783 11.2127C28.2439 10.8015 27.6322 10.4477 26.8984 10.1745C26.0267 11.1347 24.8011 11.6837 23.5027 11.6837C22.2043 11.6837 20.9786 11.1347 20.1042 10.177ZM35.3086 23.8746C35.2616 23.9526 35.2096 24.0281 35.1472 24.0984L33.9918 25.4567C33.7446 25.7456 33.3127 25.7768 33.0238 25.5321C32.735 25.2849 32.7011 24.8504 32.9484 24.5641L34.1037 23.2058C34.1322 23.172 34.1401 23.1226 34.127 23.0809C34.1141 23.0392 34.0802 23.0081 34.0386 22.9976C31.8867 22.4798 29.74 21.962 27.5905 21.4416C27.3979 21.413 27.2237 21.3011 27.1142 21.1242L23.617 15.4333C23.591 15.3891 23.5598 15.363 23.5026 15.363C23.4583 15.3604 23.4167 15.3838 23.3933 15.4229L19.8909 21.1241C19.7972 21.2724 19.6488 21.3869 19.4642 21.4311C17.3252 21.9464 15.1888 22.4616 13.0499 22.9794C12.9848 22.9976 12.9172 22.9976 12.8834 23.0653C12.86 23.1095 12.8653 23.1694 12.899 23.2058L17.2108 28.267C17.3409 28.4023 17.4137 28.5896 17.3981 28.7926C17.2264 31.0148 17.0546 33.2396 16.8803 35.4644C16.8776 35.5034 16.8959 35.5451 16.9271 35.571C16.9635 35.5997 17.0155 35.61 17.0573 35.5919L23.24 33.0392C23.4013 32.9715 23.5887 32.9664 23.7629 33.0392L29.8703 35.5607C29.9717 35.5971 30.1356 35.6439 30.1225 35.4644C29.9508 33.2396 29.7764 31.0148 29.6047 28.7926C29.5917 28.6182 29.6463 28.4387 29.7687 28.293L30.9266 26.9373C31.1711 26.6485 31.6057 26.6146 31.8946 26.8618C32.1807 27.109 32.2146 27.5409 31.97 27.8298L30.9994 28.9695L31.1322 30.7103H45.0066L42.9303 27.6918C42.7662 27.4655 42.7558 27.148 42.925 26.9034L45.0066 23.8746H35.3086Z" fill="#21A636"/>
</svg>
