<svg width="38" height="40" viewBox="0 0 38 40" fill="none" xmlns="http://www.w3.org/2000/svg">
<path d="M37.0718 21.2916C36.7476 21.2916 36.4847 21.5545 36.4847 21.8787V37.7444C36.4847 38.3407 35.9995 38.8258 35.4032 38.8258H21.5774C20.9811 38.8258 20.496 38.3406 20.496 37.7444V36.184C20.496 35.8598 20.2331 35.5969 19.9089 35.5969C19.5847 35.5969 19.3218 35.8598 19.3218 36.184V37.7444C19.3218 38.136 19.4223 38.5045 19.5986 38.8258H1.71367C1.60578 38.8258 1.51797 38.738 1.51797 38.6301V24.4662C1.51797 24.142 1.25508 23.8791 0.930859 23.8791C0.606641 23.8791 0.34375 24.1419 0.34375 24.4662V38.6302C0.34375 39.3855 0.958281 40 1.71359 40H35.4031C36.6469 40 37.6587 38.9881 37.6587 37.7444V21.8787C37.6588 21.5545 37.396 21.2916 37.0718 21.2916Z" fill="url(#paint0_linear_2591_829)"/>
<path d="M35.4031 12.608H29.7279V7.86203C29.7282 7.70781 29.6648 7.55563 29.5559 7.4468L22.2811 0.172032C22.1723 0.063048 22.0201 -0.000311349 21.8659 1.15057e-06H1.71359C0.958281 1.15057e-06 0.34375 0.614532 0.34375 1.36984V22.1178C0.34375 22.442 0.606641 22.7049 0.930859 22.7049C1.25508 22.7049 1.51797 22.442 1.51797 22.1178V1.36984C1.51797 1.26195 1.60578 1.17414 1.71367 1.17414H21.2788V6.29641C21.2788 7.48336 22.2445 8.44906 23.4315 8.44906H28.5538V12.6079H21.5774C20.3337 12.6079 19.3218 13.6198 19.3218 14.8635V14.9554H10.0187C9.69445 14.9554 9.43156 15.2182 9.43156 15.5425C9.43156 15.8667 9.69445 16.1296 10.0187 16.1296H19.3218V20.1174H10.0187C9.69445 20.1174 9.43156 20.3803 9.43156 20.7045C9.43156 21.0288 9.69445 21.2916 10.0187 21.2916H19.3218V25.2795H10.0187C9.69445 25.2795 9.43156 25.5423 9.43156 25.8666C9.43156 26.1908 9.69445 26.4537 10.0187 26.4537H19.3218V30.4416H10.0187C9.69445 30.4416 9.43156 30.7044 9.43156 31.0287C9.43156 31.353 9.69445 31.6158 10.0187 31.6158H19.3218V33.8358C19.3218 34.16 19.5846 34.4229 19.9089 34.4229C20.2332 34.4229 20.496 34.16 20.496 33.8358V14.8635C20.496 14.2672 20.9812 13.7821 21.5774 13.7821H35.4032C35.9995 13.7821 36.4847 14.2673 36.4847 14.8635V19.5303C36.4847 19.8545 36.7476 20.1174 37.0718 20.1174C37.396 20.1174 37.6589 19.8546 37.6589 19.5303V14.8635C37.6587 13.6198 36.6469 12.608 35.4031 12.608ZM22.453 6.29641V2.00445L27.7234 7.27492H23.4314C22.8919 7.27492 22.453 6.83602 22.453 6.29641Z" fill="url(#paint1_linear_2591_829)"/>
<path d="M34.7844 16.6845C34.7844 15.9292 34.1698 15.3146 33.4145 15.3146H23.6667C22.9114 15.3146 22.2969 15.9292 22.2969 16.6845V19.9993C22.2969 20.7547 22.9114 21.3692 23.6667 21.3692H33.4145C34.1698 21.3692 34.7844 20.7547 34.7844 19.9993V16.6845ZM33.6102 19.9993C33.6102 20.1072 33.5224 20.195 33.4145 20.195H23.6667C23.5588 20.195 23.471 20.1072 23.471 19.9993V16.6844C23.471 16.5765 23.5588 16.4887 23.6667 16.4887H33.4145C33.5224 16.4887 33.6102 16.5765 33.6102 16.6844V19.9993Z" fill="url(#paint2_linear_2591_829)"/>
<path d="M22.2969 26.1906C22.2969 26.9133 22.8849 27.5014 23.6077 27.5014H24.7255C25.4483 27.5014 26.0363 26.9133 26.0363 26.1906V25.0727C26.0363 24.3499 25.4483 23.7619 24.7255 23.7619H23.6077C22.8849 23.7619 22.2969 24.3499 22.2969 25.0727V26.1906ZM23.471 25.0728C23.471 24.9974 23.5323 24.9361 23.6077 24.9361H24.7255C24.8009 24.9361 24.8622 24.9974 24.8622 25.0728V26.1907C24.8622 26.266 24.8009 26.3273 24.7255 26.3273H23.6077C23.5323 26.3273 23.471 26.266 23.471 26.1907V25.0728Z" fill="url(#paint3_linear_2591_829)"/>
<path d="M30.4113 25.0729C30.4113 24.3501 29.8233 23.7621 29.1005 23.7621H27.9827C27.2599 23.7621 26.6719 24.3502 26.6719 25.0729V26.1908C26.6719 26.9136 27.2599 27.5016 27.9827 27.5016H29.1005C29.8233 27.5016 30.4113 26.9136 30.4113 26.1908V25.0729ZM29.2371 26.1907C29.2371 26.2661 29.1758 26.3274 29.1005 26.3274H27.9827C27.9073 26.3274 27.846 26.2661 27.846 26.1907V25.0728C27.846 24.9975 27.9073 24.9362 27.9827 24.9362H29.1005C29.1759 24.9362 29.2372 24.9975 29.2372 25.0728V26.1907H29.2371Z" fill="url(#paint4_linear_2591_829)"/>
<path d="M34.7863 25.0729C34.7863 24.3501 34.1983 23.7621 33.4755 23.7621H32.3577C31.6349 23.7621 31.0469 24.3502 31.0469 25.0729V26.1908C31.0469 26.9136 31.6349 27.5016 32.3577 27.5016H33.4755C34.1983 27.5016 34.7863 26.9136 34.7863 26.1908V25.0729ZM33.6122 26.1907C33.6122 26.2661 33.5509 26.3274 33.4755 26.3274H32.3577C32.2823 26.3274 32.221 26.2661 32.221 26.1907V25.0728C32.221 24.9975 32.2823 24.9362 32.3577 24.9362H33.4755C33.5509 24.9362 33.6122 24.9975 33.6122 25.0728V26.1907Z" fill="url(#paint5_linear_2591_829)"/>
<path d="M22.2969 30.9773C22.2969 31.7001 22.8849 32.2881 23.6077 32.2881H24.7255C25.4483 32.2881 26.0363 31.7001 26.0363 30.9773V29.8594C26.0363 29.1367 25.4483 28.5486 24.7255 28.5486H23.6077C22.8849 28.5486 22.2969 29.1366 22.2969 29.8594V30.9773ZM23.471 29.8594C23.471 29.7841 23.5323 29.7228 23.6077 29.7228H24.7255C24.8009 29.7228 24.8622 29.784 24.8622 29.8594V30.9773C24.8622 31.0526 24.8009 31.114 24.7255 31.114H23.6077C23.5323 31.114 23.471 31.0526 23.471 30.9773V29.8594Z" fill="url(#paint6_linear_2591_829)"/>
<path d="M30.4113 29.8594C30.4113 29.1367 29.8233 28.5486 29.1005 28.5486H27.9827C27.2599 28.5486 26.6719 29.1366 26.6719 29.8594V30.9773C26.6719 31.7001 27.2599 32.2881 27.9827 32.2881H29.1005C29.8233 32.2881 30.4113 31.7001 30.4113 30.9773V29.8594ZM29.2371 30.9773C29.2371 31.0526 29.1758 31.114 29.1005 31.114H27.9827C27.9073 31.114 27.846 31.0526 27.846 30.9773V29.8594C27.846 29.7841 27.9073 29.7228 27.9827 29.7228H29.1005C29.1759 29.7228 29.2372 29.784 29.2372 29.8594V30.9773H29.2371Z" fill="url(#paint7_linear_2591_829)"/>
<path d="M22.2969 35.7641C22.2969 36.4869 22.8849 37.0749 23.6077 37.0749H24.7255C25.4483 37.0749 26.0363 36.4869 26.0363 35.7641V34.6462C26.0363 33.9235 25.4483 33.3354 24.7255 33.3354H23.6077C22.8849 33.3354 22.2969 33.9234 22.2969 34.6462V35.7641ZM23.471 34.6463C23.471 34.571 23.5323 34.5097 23.6077 34.5097H24.7255C24.8009 34.5097 24.8622 34.5709 24.8622 34.6463V35.7642C24.8622 35.8395 24.8009 35.9008 24.7255 35.9008H23.6077C23.5323 35.9008 23.471 35.8395 23.471 35.7642V34.6463Z" fill="url(#paint8_linear_2591_829)"/>
<path d="M29.1005 33.3356H27.9827C27.2599 33.3356 26.6719 33.9236 26.6719 34.6464V35.7643C26.6719 36.487 27.2599 37.0751 27.9827 37.0751H29.1005C29.8233 37.0751 30.4113 36.487 30.4113 35.7643V34.6464C30.4113 33.9236 29.8233 33.3356 29.1005 33.3356ZM29.2371 35.7642C29.2371 35.8395 29.1758 35.9009 29.1005 35.9009H27.9827C27.9073 35.9009 27.846 35.8395 27.846 35.7642V34.6463C27.846 34.571 27.9073 34.5097 27.9827 34.5097H29.1005C29.1759 34.5097 29.2372 34.5709 29.2372 34.6463V35.7642H29.2371Z" fill="url(#paint9_linear_2591_829)"/>
<path d="M33.3647 28.5486H32.4685C31.6846 28.5486 31.0469 29.1864 31.0469 29.9703V35.6533C31.0469 36.4372 31.6846 37.0749 32.4685 37.0749H33.3647C34.1486 37.0749 34.7863 36.4372 34.7863 35.6533V29.9703C34.7863 29.1864 34.1486 28.5486 33.3647 28.5486ZM33.6122 35.6533C33.6122 35.7897 33.5012 35.9008 33.3647 35.9008H32.4685C32.332 35.9008 32.221 35.7897 32.221 35.6533V29.9703C32.221 29.8338 32.332 29.7229 32.4685 29.7229H33.3647C33.5012 29.7229 33.6122 29.8339 33.6122 29.9703V35.6533Z" fill="url(#paint10_linear_2591_829)"/>
<path d="M5.03242 10.9676H7.37594C7.70016 10.9676 7.96305 10.7048 7.96305 10.3805C7.96305 10.0563 7.70024 9.7934 7.37594 9.7934H5.03242C4.7082 9.7934 4.44531 10.0563 4.44531 10.3805C4.44531 10.7047 4.7082 10.9676 5.03242 10.9676Z" fill="url(#paint11_linear_2591_829)"/>
<path d="M10.0207 10.9676H21.3199C21.6442 10.9676 21.9071 10.7048 21.9071 10.3805C21.9071 10.0563 21.6442 9.7934 21.3199 9.7934H10.0207C9.69648 9.7934 9.43359 10.0563 9.43359 10.3805C9.43367 10.7047 9.69648 10.9676 10.0207 10.9676Z" fill="url(#paint12_linear_2591_829)"/>
<path d="M5.03242 16.1295H7.37594C7.70016 16.1295 7.96305 15.8667 7.96305 15.5424C7.96305 15.2182 7.70024 14.9553 7.37594 14.9553H5.03242C4.7082 14.9553 4.44531 15.2181 4.44531 15.5424C4.44531 15.8667 4.7082 16.1295 5.03242 16.1295Z" fill="url(#paint13_linear_2591_829)"/>
<path d="M5.03242 21.2917H7.37594C7.70016 21.2917 7.96305 21.0288 7.96305 20.7046C7.96305 20.3804 7.70024 20.1175 7.37594 20.1175H5.03242C4.7082 20.1175 4.44531 20.3804 4.44531 20.7046C4.44531 21.0288 4.7082 21.2917 5.03242 21.2917Z" fill="url(#paint14_linear_2591_829)"/>
<path d="M5.03242 26.4537H7.37594C7.70016 26.4537 7.96305 26.1908 7.96305 25.8666C7.96305 25.5424 7.70024 25.2795 7.37594 25.2795H5.03242C4.7082 25.2795 4.44531 25.5424 4.44531 25.8666C4.44531 26.1909 4.7082 26.4537 5.03242 26.4537Z" fill="url(#paint15_linear_2591_829)"/>
<path d="M5.03242 31.6156H7.37594C7.70016 31.6156 7.96305 31.3528 7.96305 31.0285C7.96305 30.7042 7.70024 30.4414 7.37594 30.4414H5.03242C4.7082 30.4414 4.44531 30.7042 4.44531 31.0285C4.44531 31.3528 4.7082 31.6156 5.03242 31.6156Z" fill="url(#paint16_linear_2591_829)"/>
<defs>
<linearGradient id="paint0_linear_2591_829" x1="0.34375" y1="21.2916" x2="39.1609" y2="25.2426" gradientUnits="userSpaceOnUse">
<stop stop-color="#7AEB8C"/>
<stop offset="0.0001" stop-color="#21A636"/>
<stop offset="1" stop-color="#066716"/>
</linearGradient>
<linearGradient id="paint1_linear_2591_829" x1="0.34375" y1="0" x2="39.4435" y2="2.16301" gradientUnits="userSpaceOnUse">
<stop stop-color="#7AEB8C"/>
<stop offset="0.0001" stop-color="#21A636"/>
<stop offset="1" stop-color="#066716"/>
</linearGradient>
<linearGradient id="paint2_linear_2591_829" x1="22.2969" y1="15.3146" x2="35.2778" y2="16.6809" gradientUnits="userSpaceOnUse">
<stop stop-color="#7AEB8C"/>
<stop offset="0.0001" stop-color="#21A636"/>
<stop offset="1" stop-color="#066716"/>
</linearGradient>
<linearGradient id="paint3_linear_2591_829" x1="22.2969" y1="23.7619" x2="26.2169" y2="23.962" gradientUnits="userSpaceOnUse">
<stop stop-color="#7AEB8C"/>
<stop offset="0.0001" stop-color="#21A636"/>
<stop offset="1" stop-color="#066716"/>
</linearGradient>
<linearGradient id="paint4_linear_2591_829" x1="26.6719" y1="23.7621" x2="30.592" y2="23.9622" gradientUnits="userSpaceOnUse">
<stop stop-color="#7AEB8C"/>
<stop offset="0.0001" stop-color="#21A636"/>
<stop offset="1" stop-color="#066716"/>
</linearGradient>
<linearGradient id="paint5_linear_2591_829" x1="31.0469" y1="23.7621" x2="34.967" y2="23.9622" gradientUnits="userSpaceOnUse">
<stop stop-color="#7AEB8C"/>
<stop offset="0.0001" stop-color="#21A636"/>
<stop offset="1" stop-color="#066716"/>
</linearGradient>
<linearGradient id="paint6_linear_2591_829" x1="22.2969" y1="28.5486" x2="26.2169" y2="28.7487" gradientUnits="userSpaceOnUse">
<stop stop-color="#7AEB8C"/>
<stop offset="0.0001" stop-color="#21A636"/>
<stop offset="1" stop-color="#066716"/>
</linearGradient>
<linearGradient id="paint7_linear_2591_829" x1="26.6719" y1="28.5486" x2="30.592" y2="28.7487" gradientUnits="userSpaceOnUse">
<stop stop-color="#7AEB8C"/>
<stop offset="0.0001" stop-color="#21A636"/>
<stop offset="1" stop-color="#066716"/>
</linearGradient>
<linearGradient id="paint8_linear_2591_829" x1="22.2969" y1="33.3354" x2="26.2169" y2="33.5355" gradientUnits="userSpaceOnUse">
<stop stop-color="#7AEB8C"/>
<stop offset="0.0001" stop-color="#21A636"/>
<stop offset="1" stop-color="#066716"/>
</linearGradient>
<linearGradient id="paint9_linear_2591_829" x1="26.6719" y1="33.3356" x2="30.592" y2="33.5357" gradientUnits="userSpaceOnUse">
<stop stop-color="#7AEB8C"/>
<stop offset="0.0001" stop-color="#21A636"/>
<stop offset="1" stop-color="#066716"/>
</linearGradient>
<linearGradient id="paint10_linear_2591_829" x1="31.0469" y1="28.5486" x2="34.9752" y2="28.6366" gradientUnits="userSpaceOnUse">
<stop stop-color="#7AEB8C"/>
<stop offset="0.0001" stop-color="#21A636"/>
<stop offset="1" stop-color="#066716"/>
</linearGradient>
<linearGradient id="paint11_linear_2591_829" x1="4.44531" y1="9.7934" x2="8.05812" y2="10.3457" gradientUnits="userSpaceOnUse">
<stop stop-color="#7AEB8C"/>
<stop offset="0.0001" stop-color="#21A636"/>
<stop offset="1" stop-color="#066716"/>
</linearGradient>
<linearGradient id="paint12_linear_2591_829" x1="9.43359" y1="9.7934" x2="19.5659" y2="15.2862" gradientUnits="userSpaceOnUse">
<stop stop-color="#7AEB8C"/>
<stop offset="0.0001" stop-color="#21A636"/>
<stop offset="1" stop-color="#066716"/>
</linearGradient>
<linearGradient id="paint13_linear_2591_829" x1="4.44531" y1="14.9553" x2="8.05812" y2="15.5077" gradientUnits="userSpaceOnUse">
<stop stop-color="#7AEB8C"/>
<stop offset="0.0001" stop-color="#21A636"/>
<stop offset="1" stop-color="#066716"/>
</linearGradient>
<linearGradient id="paint14_linear_2591_829" x1="4.44531" y1="20.1175" x2="8.05812" y2="20.6698" gradientUnits="userSpaceOnUse">
<stop stop-color="#7AEB8C"/>
<stop offset="0.0001" stop-color="#21A636"/>
<stop offset="1" stop-color="#066716"/>
</linearGradient>
<linearGradient id="paint15_linear_2591_829" x1="4.44531" y1="25.2795" x2="8.05812" y2="25.8318" gradientUnits="userSpaceOnUse">
<stop stop-color="#7AEB8C"/>
<stop offset="0.0001" stop-color="#21A636"/>
<stop offset="1" stop-color="#066716"/>
</linearGradient>
<linearGradient id="paint16_linear_2591_829" x1="4.44531" y1="30.4414" x2="8.05812" y2="30.9937" gradientUnits="userSpaceOnUse">
<stop stop-color="#7AEB8C"/>
<stop offset="0.0001" stop-color="#21A636"/>
<stop offset="1" stop-color="#066716"/>
</linearGradient>
</defs>
</svg>
