<svg width="14" height="14" viewBox="0 0 14 14" fill="none" xmlns="http://www.w3.org/2000/svg">
<path d="M13.0476 11.7941C13.0254 11.7607 12.9948 11.7336 12.9589 11.7156L12.4755 11.474C12.4656 11.4377 12.4468 11.4045 12.4208 11.3774L8.36448 7.32116L8.95411 6.73222C9.46337 6.22253 10.0516 5.79846 10.6962 5.47651L10.938 5.3548C11.035 5.36637 11.1325 5.37247 11.2302 5.37304C11.9006 5.37376 12.5435 5.1064 13.0157 4.63052L13.2901 4.35614C13.9769 3.66885 14.147 2.61933 13.7125 1.75027C13.6554 1.6362 13.5167 1.59001 13.4026 1.64709C13.3806 1.65812 13.3604 1.67261 13.343 1.68999L12.1997 2.83322C11.9295 3.10413 11.4908 3.10471 11.2199 2.83446C11.0896 2.70452 11.0164 2.52807 11.0163 2.34406C11.0159 2.16024 11.089 1.98388 11.2193 1.8542L12.3626 0.710966C12.4527 0.620691 12.4525 0.474438 12.3622 0.384336C12.3448 0.366957 12.3247 0.352464 12.3028 0.341436C11.4344 -0.0948398 10.3841 0.074884 9.69733 0.762469L9.42296 1.03684C8.94508 1.51227 8.67728 2.15915 8.67928 2.83322C8.67977 2.92719 8.68586 3.02105 8.69752 3.11429L8.57765 3.35587C8.25518 4.00047 7.8306 4.58869 7.32033 5.09774L6.7307 5.68737L6.37733 5.33424L7.03048 4.68041C7.12049 4.59025 7.12049 4.44422 7.03048 4.35407L6.71407 4.03766C6.67157 3.99513 6.61415 3.97085 6.55402 3.96999L6.06369 3.96329L5.98332 3.67667C5.97247 3.63856 5.95211 3.60386 5.9242 3.57574L2.82291 0.473312C2.19108 -0.158093 1.16704 -0.157718 0.535637 0.47412C-0.0957686 1.10596 -0.0953933 2.12999 0.536446 2.76139L3.62433 5.84927C3.65156 5.87644 3.68513 5.89636 3.72203 5.90724L4.02897 5.99847L4.04629 6.50658C4.04834 6.56509 4.0725 6.62064 4.11396 6.66201L4.41882 6.96687C4.50901 7.05703 4.65521 7.05703 4.7454 6.96687L5.39715 6.31465L5.74982 6.66732L5.04656 7.37035C4.53831 7.88102 3.95001 8.30517 3.30492 8.62606L3.06519 8.748C2.97171 8.73623 2.87762 8.73005 2.78342 8.72953C2.10929 8.72748 1.46238 8.99518 0.986811 9.47297L0.712435 9.74735C0.0243288 10.4337 -0.1458 11.4841 0.290477 12.3525C0.347725 12.4665 0.48653 12.5125 0.600536 12.4553C0.622535 12.4442 0.642599 12.4297 0.660007 12.4124L1.80324 11.2694C2.07158 10.9965 2.51026 10.9929 2.78307 11.2613C3.05589 11.5296 3.0595 11.9683 2.79116 12.2411C2.78853 12.2438 2.78587 12.2464 2.78319 12.2491L1.63996 13.3923C1.54994 13.4827 1.55023 13.6289 1.64059 13.7189C1.65806 13.7363 1.67818 13.7508 1.70023 13.7618C2.56892 14.1959 3.61787 14.0259 4.30496 13.3396L4.57934 13.0653C5.12665 12.5215 5.39355 11.7563 5.30315 10.9901L5.42672 10.7448C5.74798 10.1004 6.17167 9.51241 6.68127 9.00367L7.38407 8.30087L11.3221 12.238C11.3193 12.2772 11.3267 12.3165 11.3436 12.3521L11.6685 13.0054C11.6866 13.0413 11.7136 13.0719 11.7471 13.0941L12.727 13.7475C12.8186 13.8085 12.9404 13.7964 13.0183 13.7186L13.6716 13.0653C13.7495 12.9876 13.7618 12.8657 13.701 12.774L13.0476 11.7941ZM9.74953 1.36342L10.0239 1.08904C10.4847 0.627446 11.1599 0.452555 11.7868 0.632441L10.8928 1.5267C10.4398 1.97568 10.4366 2.70686 10.8856 3.15979C11.3346 3.61273 12.0658 3.61596 12.5187 3.16695C12.5211 3.16458 12.5235 3.16219 12.5259 3.15979L13.4197 2.26599C13.5984 2.89278 13.4239 3.56726 12.9635 4.02865L12.6891 4.30302C12.2284 4.76716 11.5746 4.98472 10.9276 4.88919H10.9226C10.8152 4.87386 10.7092 4.85025 10.6055 4.81852L10.5914 4.81413C10.4905 4.7824 10.3922 4.74302 10.2974 4.69634L10.2835 4.68941C10.1869 4.64103 10.0942 4.58511 10.0064 4.5222C9.91547 4.45652 9.82999 4.38369 9.75068 4.30441C9.43124 3.98612 9.22523 3.5717 9.16428 3.12492C9.1497 3.02884 9.14237 2.93178 9.14234 2.83461C9.14001 2.28277 9.35866 1.75295 9.74953 1.36342ZM7.64667 5.42455C8.12957 4.94323 8.54079 4.39506 8.86774 3.79677C8.8779 3.82171 8.89083 3.84527 8.90192 3.86975C8.9197 3.91017 8.93772 3.95059 8.95781 3.98985C8.97467 4.02264 8.99291 4.05475 9.01116 4.08685C9.02941 4.11895 9.04996 4.15429 9.07098 4.18731C9.09199 4.22034 9.11209 4.25129 9.13403 4.2827C9.15597 4.31411 9.18022 4.34483 9.20332 4.37508C9.22641 4.40534 9.24951 4.43605 9.27422 4.46562C9.29893 4.49518 9.33127 4.52936 9.3606 4.56077C9.38185 4.58387 9.40101 4.60696 9.42319 4.63006C9.44074 4.64738 9.45968 4.66239 9.47746 4.67902C9.5158 4.71505 9.55414 4.75085 9.59432 4.78434C9.61511 4.80166 9.63682 4.81759 9.65807 4.83445C9.7001 4.86725 9.7426 4.89889 9.78648 4.92892C9.80704 4.943 9.82805 4.95686 9.84907 4.97026C9.89711 5.00106 9.94622 5.03022 9.99642 5.05779C10.0142 5.06749 10.0318 5.07765 10.0498 5.08712C10.1158 5.1213 10.183 5.15317 10.2521 5.18135L10.2586 5.18435C9.65963 5.51121 9.11062 5.92217 8.62823 6.40472L8.03791 6.99459L7.21524 6.17215L7.05727 6.01395L7.64667 5.42455ZM4.5828 6.47817L4.50566 6.40103L4.4858 5.81671C4.48245 5.7174 4.41594 5.63134 4.32067 5.60308L3.91026 5.48113L0.864173 2.43644C0.412769 1.98535 0.412509 1.25371 0.863595 0.802309C1.31468 0.350905 2.04632 0.350645 2.49773 0.801731L5.55467 3.85959L5.66529 4.25429C5.69301 4.35277 5.78219 4.42127 5.88447 4.42266L6.45355 4.43051L6.54062 4.51758L4.5828 6.47817ZM4.253 12.7392L3.9777 13.0142C3.51648 13.4747 2.84194 13.6492 2.21527 13.4701L3.10907 12.5763C3.55453 12.1199 3.54563 11.3888 3.08921 10.9434C2.64092 10.5059 1.92559 10.5055 1.4769 10.9425L0.582637 11.8363C0.402404 11.2094 0.577209 10.5342 1.03901 10.0735L1.31338 9.79908C2.12618 8.98987 3.4402 8.98987 4.253 9.79908C4.57036 10.1181 4.77594 10.5314 4.83893 10.977V10.9783C4.93478 11.6251 4.71722 12.2788 4.253 12.7392ZM6.3547 8.67756C5.872 9.15945 5.46101 9.7082 5.13433 10.307C5.13109 10.2986 5.1267 10.291 5.12324 10.2839C5.09784 10.223 5.07012 10.1634 5.0401 10.1051C5.02739 10.0806 5.01377 10.0568 5.00014 10.0326C4.97704 9.99032 4.9521 9.94851 4.926 9.90763C4.90868 9.88038 4.89113 9.85382 4.87288 9.82726C4.84725 9.79031 4.82023 9.75428 4.79251 9.71871C4.77242 9.69238 4.75255 9.66582 4.73108 9.64019C4.69828 9.60115 4.66317 9.56351 4.62784 9.52609C4.61121 9.50877 4.59666 9.49006 4.57957 9.47297C4.56248 9.45588 4.54146 9.43902 4.52275 9.42147C4.48696 9.38775 4.45116 9.35403 4.41374 9.32262C4.38626 9.29953 4.35762 9.27828 4.32921 9.25634C4.29642 9.23116 4.26339 9.20622 4.22967 9.18266C4.19988 9.16211 4.16985 9.14224 4.13913 9.12284C4.10403 9.09975 4.06823 9.07966 4.0322 9.05933C4.00195 9.04224 3.97192 9.02492 3.94097 9.00921C3.89825 8.98727 3.85437 8.96764 3.81025 8.94824C3.78831 8.93854 3.76729 8.92699 3.74512 8.91776C4.34422 8.59202 4.89292 8.18109 5.37406 7.69785L6.07686 6.99505L7.0575 7.97569L6.3547 8.67756ZM11.6036 11.8675L5.72465 5.98854L6.05168 5.66151L11.9307 11.5405L11.6036 11.8675ZM12.8261 13.2581L12.0549 12.744L11.8302 12.2946L12.248 11.8768L12.6975 12.1015L13.2116 12.8726L12.8261 13.2581Z" fill="#041306"/>
</svg>
