<svg width="127" height="49" viewBox="0 0 127 49" fill="none" xmlns="http://www.w3.org/2000/svg">
<rect width="49" height="49" rx="24.5" fill="#21A636"/>
<path d="M27.8866 29.8222L19.0647 19.4734L9.39453 29.4829" stroke="black" stroke-width="2" stroke-linecap="round" stroke-linejoin="round"/>
<path d="M33.8255 21.6787L21.1016 21.8484L27.718 29.822H40.2723L33.8255 21.6787Z" fill="black" stroke="black" stroke-width="2" stroke-linecap="round" stroke-linejoin="round"/>
<rect x="28.0586" y="18.7947" width="2.71444" height="3.39305" fill="black"/>
<rect x="16.1094" y="25.5068" width="2.37513" height="2.37513" fill="black"/>
<rect x="16.1094" y="28.5603" width="2.37513" height="2.37513" fill="black"/>
<rect x="19.1602" y="25.5068" width="2.37513" height="2.37513" fill="black"/>
<rect x="19.1602" y="28.5603" width="2.37513" height="2.37513" fill="black"/>
<path d="M65.72 21.16C64.5893 21.16 63.5653 20.9147 62.648 20.424C61.7413 19.9227 61.0267 19.2347 60.504 18.36C59.992 17.4853 59.736 16.4987 59.736 15.4C59.736 14.3013 59.9973 13.3147 60.52 12.44C61.0427 11.5653 61.7573 10.8827 62.664 10.392C63.5813 9.89067 64.6053 9.64 65.736 9.64C66.6533 9.64 67.4907 9.8 68.248 10.12C69.0053 10.44 69.6453 10.904 70.168 11.512L68.824 12.776C68.0133 11.9013 67.016 11.464 65.832 11.464C65.064 11.464 64.376 11.6347 63.768 11.976C63.16 12.3067 62.6853 12.7707 62.344 13.368C62.0027 13.9653 61.832 14.6427 61.832 15.4C61.832 16.1573 62.0027 16.8347 62.344 17.432C62.6853 18.0293 63.16 18.4987 63.768 18.84C64.376 19.1707 65.064 19.336 65.832 19.336C67.016 19.336 68.0133 18.8933 68.824 18.008L70.168 19.288C69.6453 19.896 69 20.36 68.232 20.68C67.4747 21 66.6373 21.16 65.72 21.16ZM77.1873 16.28H75.1073V21H73.0593V9.8H75.1073V14.488H77.2513L80.4673 9.8H82.6753L78.8513 15.224L82.8193 21H80.4673L77.1873 16.28ZM70.488 28.8V40H68.44V30.56H62.632V40H60.584V28.8H70.488ZM79.1181 31.36C79.9501 31.36 80.6915 31.5413 81.3421 31.904C82.0035 32.2667 82.5208 32.7787 82.8941 33.44C83.2675 34.1013 83.4541 34.864 83.4541 35.728C83.4541 36.592 83.2675 37.36 82.8941 38.032C82.5208 38.6933 82.0035 39.2053 81.3421 39.568C80.6915 39.9307 79.9501 40.112 79.1181 40.112C77.9661 40.112 77.0541 39.728 76.3821 38.96V43.104H74.3821V31.456H76.2861V32.576C76.6168 32.1707 77.0221 31.8667 77.5021 31.664C77.9928 31.4613 78.5315 31.36 79.1181 31.36ZM78.8941 38.4C79.6301 38.4 80.2328 38.1547 80.7021 37.664C81.1821 37.1733 81.4221 36.528 81.4221 35.728C81.4221 34.928 81.1821 34.2827 80.7021 33.792C80.2328 33.3013 79.6301 33.056 78.8941 33.056C78.4141 33.056 77.9821 33.168 77.5981 33.392C77.2141 33.6053 76.9101 33.9147 76.6861 34.32C76.4621 34.7253 76.3501 35.1947 76.3501 35.728C76.3501 36.2613 76.4621 36.7307 76.6861 37.136C76.9101 37.5413 77.2141 37.856 77.5981 38.08C77.9821 38.2933 78.4141 38.4 78.8941 38.4ZM90.2126 40.112C89.3486 40.112 88.57 39.9253 87.8766 39.552C87.1833 39.1787 86.6393 38.6613 86.2446 38C85.8606 37.328 85.6686 36.5707 85.6686 35.728C85.6686 34.8853 85.8606 34.1333 86.2446 33.472C86.6393 32.8107 87.1833 32.2933 87.8766 31.92C88.57 31.5467 89.3486 31.36 90.2126 31.36C91.0873 31.36 91.8713 31.5467 92.5646 31.92C93.258 32.2933 93.7966 32.8107 94.1806 33.472C94.5753 34.1333 94.7726 34.8853 94.7726 35.728C94.7726 36.5707 94.5753 37.328 94.1806 38C93.7966 38.6613 93.258 39.1787 92.5646 39.552C91.8713 39.9253 91.0873 40.112 90.2126 40.112ZM90.2126 38.4C90.9486 38.4 91.5566 38.1547 92.0366 37.664C92.5166 37.1733 92.7566 36.528 92.7566 35.728C92.7566 34.928 92.5166 34.2827 92.0366 33.792C91.5566 33.3013 90.9486 33.056 90.2126 33.056C89.4766 33.056 88.8686 33.3013 88.3886 33.792C87.9193 34.2827 87.6846 34.928 87.6846 35.728C87.6846 36.528 87.9193 37.1733 88.3886 37.664C88.8686 38.1547 89.4766 38.4 90.2126 38.4ZM105.708 35.776C105.708 35.9147 105.698 36.112 105.676 36.368H98.9724C99.0897 36.9973 99.3937 37.4987 99.8844 37.872C100.386 38.2347 101.004 38.416 101.74 38.416C102.679 38.416 103.452 38.1067 104.06 37.488L105.132 38.72C104.748 39.1787 104.263 39.5253 103.676 39.76C103.09 39.9947 102.428 40.112 101.692 40.112C100.754 40.112 99.927 39.9253 99.2124 39.552C98.4977 39.1787 97.943 38.6613 97.5484 38C97.1644 37.328 96.9724 36.5707 96.9724 35.728C96.9724 34.896 97.159 34.1493 97.5324 33.488C97.9164 32.816 98.4444 32.2933 99.1164 31.92C99.7884 31.5467 100.546 31.36 101.388 31.36C102.22 31.36 102.962 31.5467 103.612 31.92C104.274 32.2827 104.786 32.8 105.148 33.472C105.522 34.1333 105.708 34.9013 105.708 35.776ZM101.388 32.96C100.748 32.96 100.204 33.152 99.7564 33.536C99.319 33.9093 99.0524 34.4107 98.9564 35.04H103.804C103.719 34.4213 103.458 33.92 103.02 33.536C102.583 33.152 102.039 32.96 101.388 32.96ZM112.408 36.576H110.856V40H108.856V31.456H110.856V34.912H112.456L114.984 31.456H117.128L114.024 35.568L117.336 40H114.984L112.408 36.576ZM126.365 33.152H123.373V40H121.373V33.152H118.365V31.456H126.365V33.152Z" fill="white"/>
</svg>
