<svg width="141" height="50" viewBox="0 0 141 50" fill="none" xmlns="http://www.w3.org/2000/svg">
<rect width="50" height="50" rx="25" fill="#21A636"/>
<path d="M28.4554 30.4311L19.4535 19.8711L9.58594 30.0849" stroke="#021705" stroke-width="2" stroke-linecap="round" stroke-linejoin="round"/>
<path d="M34.5148 22.1211L21.5312 22.2942L28.2827 30.4306H41.0933L34.5148 22.1211Z" fill="#021705" stroke="#021705" stroke-width="2" stroke-linecap="round" stroke-linejoin="round"/>
<rect x="28.6328" y="19.1782" width="2.76983" height="3.46229" fill="#021705"/>
<rect x="16.4375" y="26.0273" width="2.4236" height="2.4236" fill="#021705"/>
<rect x="16.4375" y="29.1431" width="2.4236" height="2.4236" fill="#021705"/>
<rect x="19.5508" y="26.0273" width="2.4236" height="2.4236" fill="#021705"/>
<rect x="19.5508" y="29.1431" width="2.4236" height="2.4236" fill="#021705"/>
<path d="M72.56 23.18C71.288 23.18 70.136 22.904 69.104 22.352C68.084 21.788 67.28 21.014 66.692 20.03C66.116 19.046 65.828 17.936 65.828 16.7C65.828 15.464 66.122 14.354 66.71 13.37C67.298 12.386 68.102 11.618 69.122 11.066C70.154 10.502 71.306 10.22 72.578 10.22C73.61 10.22 74.552 10.4 75.404 10.76C76.256 11.12 76.976 11.642 77.564 12.326L76.052 13.748C75.14 12.764 74.018 12.272 72.686 12.272C71.822 12.272 71.048 12.464 70.364 12.848C69.68 13.22 69.146 13.742 68.762 14.414C68.378 15.086 68.186 15.848 68.186 16.7C68.186 17.552 68.378 18.314 68.762 18.986C69.146 19.658 69.68 20.186 70.364 20.57C71.048 20.942 71.822 21.128 72.686 21.128C74.018 21.128 75.14 20.63 76.052 19.634L77.564 21.074C76.976 21.758 76.25 22.28 75.386 22.64C74.534 23 73.592 23.18 72.56 23.18ZM85.4607 17.69H83.1207V23H80.8167V10.4H83.1207V15.674H85.5327L89.1507 10.4H91.6347L87.3327 16.502L91.7967 23H89.1507L85.4607 17.69ZM77.924 32.4V45H75.62V34.38H69.086V45H66.782V32.4H77.924ZM87.6329 35.28C88.5689 35.28 89.4029 35.484 90.1349 35.892C90.8789 36.3 91.4609 36.876 91.8809 37.62C92.3009 38.364 92.5109 39.222 92.5109 40.194C92.5109 41.166 92.3009 42.03 91.8809 42.786C91.4609 43.53 90.8789 44.106 90.1349 44.514C89.4029 44.922 88.5689 45.126 87.6329 45.126C86.3369 45.126 85.3109 44.694 84.5549 43.83V48.492H82.3049V35.388H84.4469V36.648C84.8189 36.192 85.2749 35.85 85.8149 35.622C86.3669 35.394 86.9729 35.28 87.6329 35.28ZM87.3809 43.2C88.2089 43.2 88.8869 42.924 89.4149 42.372C89.9549 41.82 90.2249 41.094 90.2249 40.194C90.2249 39.294 89.9549 38.568 89.4149 38.016C88.8869 37.464 88.2089 37.188 87.3809 37.188C86.8409 37.188 86.3549 37.314 85.9229 37.566C85.4909 37.806 85.1489 38.154 84.8969 38.61C84.6449 39.066 84.5189 39.594 84.5189 40.194C84.5189 40.794 84.6449 41.322 84.8969 41.778C85.1489 42.234 85.4909 42.588 85.9229 42.84C86.3549 43.08 86.8409 43.2 87.3809 43.2ZM100.114 45.126C99.1422 45.126 98.2662 44.916 97.4862 44.496C96.7062 44.076 96.0942 43.494 95.6502 42.75C95.2182 41.994 95.0022 41.142 95.0022 40.194C95.0022 39.246 95.2182 38.4 95.6502 37.656C96.0942 36.912 96.7062 36.33 97.4862 35.91C98.2662 35.49 99.1422 35.28 100.114 35.28C101.098 35.28 101.98 35.49 102.76 35.91C103.54 36.33 104.146 36.912 104.578 37.656C105.022 38.4 105.244 39.246 105.244 40.194C105.244 41.142 105.022 41.994 104.578 42.75C104.146 43.494 103.54 44.076 102.76 44.496C101.98 44.916 101.098 45.126 100.114 45.126ZM100.114 43.2C100.942 43.2 101.626 42.924 102.166 42.372C102.706 41.82 102.976 41.094 102.976 40.194C102.976 39.294 102.706 38.568 102.166 38.016C101.626 37.464 100.942 37.188 100.114 37.188C99.2862 37.188 98.6022 37.464 98.0622 38.016C97.5342 38.568 97.2702 39.294 97.2702 40.194C97.2702 41.094 97.5342 41.82 98.0622 42.372C98.6022 42.924 99.2862 43.2 100.114 43.2ZM117.547 40.248C117.547 40.404 117.535 40.626 117.511 40.914H109.969C110.101 41.622 110.443 42.186 110.995 42.606C111.559 43.014 112.255 43.218 113.083 43.218C114.139 43.218 115.009 42.87 115.693 42.174L116.899 43.56C116.467 44.076 115.921 44.466 115.261 44.73C114.601 44.994 113.857 45.126 113.029 45.126C111.973 45.126 111.043 44.916 110.239 44.496C109.435 44.076 108.811 43.494 108.367 42.75C107.935 41.994 107.719 41.142 107.719 40.194C107.719 39.258 107.929 38.418 108.349 37.674C108.781 36.918 109.375 36.33 110.131 35.91C110.887 35.49 111.739 35.28 112.687 35.28C113.623 35.28 114.457 35.49 115.189 35.91C115.933 36.318 116.509 36.9 116.917 37.656C117.337 38.4 117.547 39.264 117.547 40.248ZM112.687 37.08C111.967 37.08 111.355 37.296 110.851 37.728C110.359 38.148 110.059 38.712 109.951 39.42H115.405C115.309 38.724 115.015 38.16 114.523 37.728C114.031 37.296 113.419 37.08 112.687 37.08ZM125.084 41.148H123.338V45H121.088V35.388H123.338V39.276H125.138L127.982 35.388H130.394L126.902 40.014L130.628 45H127.982L125.084 41.148ZM140.786 37.296H137.42V45H135.17V37.296H131.786V35.388H140.786V37.296Z" fill="#021705"/>
</svg>
