<svg width="10" height="16" viewBox="0 0 10 16" fill="none" xmlns="http://www.w3.org/2000/svg">
<path d="M8.82736 5.72342L5.61163 2.9076C5.44117 2.76009 5.22482 2.67814 4.99864 2.67814C4.77246 2.67814 4.55611 2.76009 4.38565 2.9076L3.2449 3.9074C3.17934 3.66482 3.14328 3.40914 3.14328 3.14362C3.14328 2.50113 3.34652 1.89797 3.71366 1.44888C4.06113 1.02274 4.52005 0.786724 4.99864 0.786724C6.02138 0.786724 6.854 1.84225 6.854 3.14362C6.854 3.35997 7.03101 3.53698 7.24736 3.53698C7.46371 3.53698 7.64072 3.35997 7.64072 3.14362C7.64072 1.40955 6.45408 0 4.99864 0C4.27748 0 3.60548 0.337636 3.10395 0.950625C2.62208 1.54067 2.35656 2.31756 2.35656 3.14362C2.35656 3.6091 2.44179 4.05818 2.60241 4.47121L1.17319 5.72342C0.81589 6.03811 0.609375 6.49047 0.609375 6.96579V14.0266C0.609375 15.1149 1.49444 16 2.58274 16H7.41782C8.50612 16 9.39118 15.1149 9.39118 14.0266V6.96579C9.39118 6.49047 9.18467 6.03811 8.82736 5.72342ZM8.60446 14.0266C8.60446 14.6822 8.07342 15.2133 7.41782 15.2133H2.57946C1.92386 15.2133 1.39282 14.6822 1.39282 14.0266V6.96579C1.39282 6.71666 1.501 6.47736 1.68784 6.31346L2.98266 5.17927C3.022 5.23171 3.06133 5.28416 3.10067 5.33661C3.6022 5.9496 4.2742 6.28724 4.99536 6.28724C5.21171 6.28724 5.38872 6.11022 5.38872 5.89387C5.38872 5.67753 5.21171 5.50051 4.99536 5.50051C4.51349 5.50051 4.05785 5.2645 3.71038 4.83835C3.66449 4.77935 3.61859 4.72034 3.57598 4.65806L4.9003 3.49764C4.93308 3.46814 4.96914 3.46159 4.99536 3.46159C5.02158 3.46159 5.05764 3.46814 5.09042 3.49764L8.30616 6.31346C8.493 6.47736 8.60118 6.71666 8.60118 6.96579V14.0266H8.60446Z" fill="#041306"/>
<path d="M5.43267 9.94878H4.56727C4.26242 9.94878 4.01329 9.69965 4.01329 9.39479C4.01329 9.08994 4.26242 8.84081 4.56727 8.84081H6.09155C6.3079 8.84081 6.48491 8.6638 6.48491 8.44745C6.48491 8.2311 6.3079 8.05409 6.09155 8.05409H5.39333V7.54272C5.39333 7.32637 5.21632 7.14935 4.99997 7.14935C4.78362 7.14935 4.60661 7.32637 4.60661 7.54272V8.05409H4.56727C3.82644 8.05409 3.22656 8.65724 3.22656 9.39479C3.22656 10.1356 3.82972 10.7355 4.56727 10.7355H5.43267C5.73752 10.7355 5.98665 10.9846 5.98665 11.2895C5.98665 11.5943 5.73752 11.8435 5.43267 11.8435H3.87889C3.66254 11.8435 3.48553 12.0205 3.48553 12.2368C3.48553 12.4532 3.66254 12.6302 3.87889 12.6302H4.60661V13.1514C4.60661 13.3678 4.78362 13.5448 4.99997 13.5448C5.21632 13.5448 5.39333 13.3678 5.39333 13.1514V12.6302H5.43922C5.4425 12.6302 5.44578 12.6302 5.44906 12.6302C6.18006 12.6204 6.77338 12.0238 6.77338 11.2895C6.77338 10.5487 6.17022 9.94878 5.43267 9.94878Z" fill="#041306"/>
</svg>
