<svg width="47" height="31" viewBox="0 0 47 31" fill="none" xmlns="http://www.w3.org/2000/svg">
<path d="M46.7116 12.0417C46.3269 11.6571 45.7031 11.6571 45.3185 12.0417L35.0637 22.2965C33.6184 19.8409 31.4266 17.9471 28.863 16.854L32.1992 3.764C35.4286 4.85027 38.4444 6.55415 41.0632 8.81089C41.4754 9.16606 42.0975 9.11995 42.4527 8.70764C42.8078 8.29547 42.7616 7.67352 42.3494 7.31835C39.2761 4.67006 35.6947 2.7287 31.8604 1.58897C31.8235 1.57465 31.7857 1.56165 31.7463 1.55166C31.7274 1.5468 31.7086 1.54392 31.6897 1.54024C29.122 0.794297 26.4434 0.405762 23.7296 0.405762C14.3149 0.405762 5.50848 5.04914 0.172755 12.8267C-0.0955944 13.218 -0.0469947 13.7451 0.288475 14.0807L11.6331 25.4253C11.8197 25.6119 12.0711 25.7137 12.3296 25.7137C12.3995 25.7137 12.4699 25.7062 12.5398 25.691C12.8677 25.6194 13.1364 25.386 13.2532 25.0714C14.0929 22.8093 15.6288 20.9335 17.5592 19.6494L22.6141 30.0398C22.7846 30.3902 23.1355 30.5942 23.5007 30.5942C23.6454 30.5942 23.7922 30.5621 23.9311 30.4946C24.4203 30.2566 24.6239 29.667 24.3859 29.1778L19.2907 18.7043C20.6678 18.1029 22.174 17.7724 23.7297 17.7724C28.1042 17.7724 32.1012 20.3542 33.9128 24.3499C34.0462 24.6444 34.3156 24.8546 34.6338 24.9124C34.9516 24.9699 35.2779 24.8682 35.5066 24.6398L46.7116 13.4348C47.0963 13.0501 47.0963 12.4264 46.7116 12.0417ZM18.428 16.9312L14.694 9.2559C14.4559 8.76662 13.8664 8.56316 13.3772 8.80103C12.8879 9.03904 12.6843 9.62867 12.9223 10.1178L16.6915 17.8655C14.7255 19.1176 13.0902 20.8836 12.0076 23.0132L2.26964 13.2752C7.27554 6.43541 15.2371 2.37589 23.7297 2.37589C25.9646 2.37589 28.1737 2.65895 30.3084 3.20471L26.9918 16.2177C25.9395 15.9464 24.8453 15.802 23.7297 15.802C21.8698 15.8023 20.0693 16.2019 18.428 16.9312Z" fill="#21A636"/>
</svg>
